<svg width="29" height="29" viewBox="0 0 29 29" fill="none" xmlns="http://www.w3.org/2000/svg">
<path fill-rule="evenodd" clip-rule="evenodd" d="M3.05523 15.2637V14.7587C3.05523 14.6272 3.05523 14.4956 3.08203 14.3641V14.334V14.0684H3.0849C3.16975 13.0149 3.41738 12.0135 3.80083 11.0382C5.70625 6.28129 10.7322 3.41118 16.0342 4.10213C18.271 4.39446 20.2593 5.21829 21.9162 6.67992C25.3404 9.65632 26.5831 13.3503 25.5337 17.682C24.7881 20.7913 22.8275 23.1033 19.9279 24.6712C18.5229 25.4136 17.008 25.865 15.4106 25.9727H15.4558V25.9982H14.7656C14.7656 25.9982 15.0362 25.9982 15.1756 25.9734H15.1229C14.9848 25.9734 14.8468 25.9734 14.7087 26H13.7698C13.7698 26 13.6978 25.9885 13.6171 25.973H13.5508V25.9597C13.5309 25.9555 13.5115 25.9512 13.4936 25.9468C13.2635 25.9066 13.0293 25.8777 12.7942 25.8488C12.4088 25.8013 12.0208 25.7536 11.6434 25.6545C8.41251 24.8573 6.01002 23.0236 4.38074 20.2332C3.61168 18.8852 3.14312 17.4319 3.02942 15.8997H3.02734V15.6348L3.02761 15.6091C3.02761 15.4763 3.02761 15.3434 3 15.2105L3.05523 15.2637ZM14.902 9.0451V10.7193C14.902 10.7991 14.9572 10.9319 15.0125 10.9585C16.1723 11.8621 17.3597 12.7656 18.5472 13.6692C18.6024 13.7223 18.7128 13.7223 18.7681 13.6957C19.9831 13.3237 21.1982 12.9251 22.3856 12.5264C22.4685 12.5264 22.5237 12.4201 22.5513 12.3404C22.7998 11.3571 23.0484 10.3473 23.2693 9.364C23.2693 9.28427 23.2693 9.20455 23.2141 9.12482C22.1095 7.61004 20.7011 6.46731 18.989 5.67006C18.9061 5.64349 18.7957 5.64349 18.7128 5.67006C17.4978 6.12184 16.2551 6.60019 15.0401 7.07854C14.902 7.13169 14.8744 7.18484 14.8744 7.31772V8.99195L14.902 9.0451ZM14.0736 7.34429C14.0736 7.23799 14.0459 7.15827 13.9355 7.13169C13.3142 6.89253 12.6929 6.66 12.0715 6.42748C11.4503 6.19496 10.8288 5.96237 10.2075 5.72321C10.1522 5.7055 10.097 5.7114 10.0418 5.71731C10.0142 5.72026 9.98655 5.72321 9.95894 5.72321C8.2192 6.52047 6.81085 7.66319 5.70625 9.17797C5.65102 9.23112 5.65102 9.33742 5.67864 9.41715C5.80291 9.90879 5.92027 10.4004 6.03763 10.8921C6.15499 11.3837 6.27236 11.8754 6.39663 12.367C6.39663 12.4467 6.50708 12.5264 6.58993 12.553C7.18365 12.7523 7.77737 12.945 8.37109 13.1377C8.96481 13.3303 9.55853 13.523 10.1522 13.7223C10.2514 13.77 10.3283 13.7321 10.423 13.6853L10.456 13.6692C11.0359 13.2174 11.6158 12.7723 12.1957 12.3271C12.7756 11.882 13.3556 11.4369 13.9355 10.9851C14.0459 10.9054 14.0736 10.8256 14.0736 10.6928V7.34429ZM6.20332 13.2971C5.45772 14.1741 4.71212 15.0245 3.96652 15.8749C3.91129 15.928 3.88367 16.0343 3.91129 16.1141C4.07698 17.7086 4.62927 19.1702 5.51295 20.5255C5.54056 20.5787 5.62341 20.6318 5.70625 20.6584C6.29997 20.7514 6.88679 20.8444 7.4736 20.9374C8.06042 21.0305 8.64723 21.1235 9.24095 21.2165C9.29618 21.2165 9.40664 21.1899 9.43426 21.1368C10.0142 20.4192 10.5665 19.7017 11.1188 18.9842C11.1464 18.931 11.174 18.8513 11.174 18.7982C10.9696 18.0264 10.7741 17.2547 10.5774 16.4781C10.4287 15.8908 10.2792 15.3006 10.1246 14.7056C10.1246 14.6259 10.0142 14.5461 9.93132 14.5196C9.51711 14.3867 9.10597 14.2538 8.69483 14.121C7.87251 13.8552 7.05019 13.5894 6.20332 13.3237V13.2971ZM22.7722 13.2971L19.0442 14.493C18.989 14.493 18.9061 14.5993 18.8785 14.6524C18.5195 16.0078 18.1605 17.3631 17.8292 18.745C17.8292 18.7982 17.8292 18.8779 17.8568 18.931C18.4091 19.6486 18.989 20.3927 19.5689 21.1102C19.5965 21.1633 19.6794 21.1899 19.7346 21.1899L23.2969 20.6318C23.3521 20.6318 23.435 20.5787 23.4626 20.5255C24.3739 19.1702 24.8986 17.682 25.0643 16.0875C25.0643 16.0078 25.0643 15.928 25.009 15.8749C24.6362 15.4497 24.2635 15.0179 23.8907 14.5861C23.5179 14.1543 23.145 13.7223 22.7722 13.2971ZM10.787 22.8379C11.1891 23.4442 11.5871 24.0444 11.9748 24.6447C12.1957 24.9901 12.4443 25.123 12.8309 25.1496H12.9966C14.2945 25.3356 15.5924 25.2559 16.8626 24.9901C16.9455 24.9901 17.0283 24.9104 17.0836 24.8307L18.9061 21.8011C18.9614 21.6948 18.9614 21.6151 18.9061 21.5354C18.63 21.1899 18.3538 20.8378 18.0777 20.4857L18.0767 20.4845C17.8011 20.133 17.5249 19.7808 17.2493 19.436C17.194 19.3828 17.1112 19.3297 17.0283 19.3297H11.9748C11.892 19.3297 11.8091 19.3828 11.7539 19.436C11.4835 19.7706 11.2191 20.1109 10.9522 20.4544C10.6469 20.8474 10.3383 21.2447 10.0142 21.6417V21.6683C10.2714 22.0602 10.5286 22.4481 10.7842 22.8336L10.787 22.8379Z" fill="black"/>
</svg>
