<svg width="36" height="36" viewBox="0 0 36 36" fill="none" xmlns="http://www.w3.org/2000/svg">
<rect width="35.9453" height="35.9453" rx="10.2701" fill="#E2EAFF"/>
<path d="M17.8646 7.05407C17.8909 7.05031 17.918 7.0473 17.9451 7.04504C18.2719 7.01793 18.6002 7.08419 18.8991 7.22046C21.5334 8.42435 24.0421 9.92337 26.6358 11.2236C27.6507 11.8839 27.2103 13.3837 26.0237 13.4371H10.3928C9.28379 13.395 8.78612 12.0736 9.62108 11.3305C12.0567 10.0709 14.4381 8.67582 16.8971 7.46365C17.1832 7.32286 17.5529 7.09623 17.8638 7.05407H17.8646Z" fill="#1F397A"/>
<path d="M10.4521 23.8348L25.8452 23.8242C27.5557 23.9771 27.6777 26.3171 26.0236 26.6649H10.3964C8.78974 26.3532 8.82362 24.1028 10.4529 23.8348H10.4521Z" fill="#1F397A"/>
<path d="M13.9656 16.7781C13.9656 15.9644 13.3061 15.3047 12.4926 15.3047C11.679 15.3047 11.0195 15.9644 11.0195 16.7781V20.4756C11.0195 21.2893 11.679 21.949 12.4926 21.949C13.3061 21.949 13.9656 21.2893 13.9656 20.4756V16.7781Z" fill="#1F397A"/>
<path d="M19.6766 16.7781C19.6766 15.9644 19.0171 15.3047 18.2035 15.3047C17.39 15.3047 16.7305 15.9644 16.7305 16.7781V20.4756C16.7305 21.2893 17.39 21.949 18.2035 21.949C19.0171 21.949 19.6766 21.2893 19.6766 20.4756V16.7781Z" fill="#1F397A"/>
<path d="M25.3328 16.7781C25.3328 15.9644 24.6733 15.3047 23.8598 15.3047C23.0462 15.3047 22.3867 15.9644 22.3867 16.7781V20.4756C22.3867 21.2893 23.0462 21.949 23.8598 21.949C24.6733 21.949 25.3328 21.2893 25.3328 20.4756V16.7781Z" fill="#1F397A"/>
</svg>
