<svg width="55" height="55" viewBox="0 0 55 55" fill="none" xmlns="http://www.w3.org/2000/svg">
<path d="M26.3668 16.5162C34.5673 15.8453 40.8851 23.4036 38.4849 31.3467C35.6303 40.7951 22.8107 42.3832 17.6572 33.9485C13.2917 26.8037 18.0196 17.1992 26.3668 16.5162ZM26.7097 21.1716C26.3752 21.2404 25.9561 21.6093 25.8985 21.9596L25.9273 27.8351C25.9747 27.9662 26.0528 28.073 26.1364 28.1827C27.2691 29.6536 29.2382 31.0252 30.4508 32.4934C31.5492 33.2516 32.8036 31.9591 31.9822 30.8923L28.1565 27.0667C27.9995 25.5595 28.2411 23.9352 28.1231 22.44C28.0599 21.6353 27.6027 20.9876 26.7097 21.1716Z" fill="#0E5A67"/>
<path d="M34.7289 38.7539C34.1453 40.67 34.373 43.7113 31.707 43.9037C28.963 44.1025 25.9848 43.7476 23.2157 43.9037C20.6018 43.6119 20.8648 40.6988 20.2617 38.7892L22.2549 39.8569C26.3054 41.6475 31.0696 41.2284 34.7298 38.7539H34.7289Z" fill="#0E5A67"/>
<path d="M34.6562 17.1228C30.9904 14.7375 26.2681 14.2971 22.251 16.0895L20.2578 17.1572C20.86 15.2449 20.61 12.236 23.2815 12.0427C26.0255 11.8439 29.0037 12.1989 31.7728 12.0427C34.3301 12.3234 34.1665 15.2077 34.6562 17.1228Z" fill="#0E5A67"/>
</svg>
