<svg width="75" height="75" viewBox="0 0 75 75" fill="none" xmlns="http://www.w3.org/2000/svg">
<rect width="75" height="75" rx="20" fill="#EADDFF"/>
<path d="M34.693 13.1557C36.3484 11.8844 38.6516 11.8844 40.307 13.1557L47.6173 18.7696C47.9377 19.0156 48.2891 19.2185 48.6623 19.3729L57.1793 22.8969C59.108 23.6949 60.2596 25.6895 59.9863 27.7588L58.7797 36.8967C58.7268 37.2971 58.7268 37.7029 58.7797 38.1033L59.9863 47.2412C60.2596 49.3105 59.108 51.3051 57.1793 52.1031L48.6623 55.6271C48.2891 55.7815 47.9377 55.9844 47.6173 56.2304L40.307 61.8443C38.6516 63.1156 36.3484 63.1156 34.693 61.8443L27.3827 56.2304C27.0623 55.9844 26.7109 55.7815 26.3377 55.6271L17.8207 52.1031C15.892 51.3051 14.7404 49.3105 15.0137 47.2412L16.2203 38.1033C16.2732 37.7029 16.2732 37.2971 16.2203 36.8967L15.0137 27.7588C14.7404 25.6895 15.892 23.6949 17.8207 22.8969L26.3377 19.3729C26.7109 19.2185 27.0623 19.0156 27.3827 18.7696L34.693 13.1557Z" fill="#3C1E7C"/>
<path d="M30.8524 39.6318V41.9056L22.3494 38.084V35.6955L30.8524 31.8739V34.1478L24.7379 36.842V36.9375L30.8524 39.6318ZM42.5641 46.1094H40.2521L32.9528 30.4408H35.2649L42.5641 46.1094ZM53.1677 38.084L44.6647 41.9056V39.6318L50.7792 36.9375V36.842L44.6647 34.1478V31.8739L53.1677 35.6955V38.084Z" fill="#C098FF"/>
</svg>
