<svg width="41" height="41" viewBox="0 0 41 41" fill="none" xmlns="http://www.w3.org/2000/svg">
<g clip-path="url(#clip0_179_572)">
<path d="M16.9743 45.7818L6.02872 14.063C5.89479 13.6758 6.24236 13.2345 6.79863 13.0594C7.35491 12.8843 7.89722 13.0083 8.04265 13.4285L18.9882 45.1473C19.1715 45.6789 17.1583 46.3135 16.9743 45.7818Z" fill="#FF5061"/>
<path d="M25.3106 21.4002L14.2234 24.9336C13.6978 25.1008 13.1306 24.8248 12.9576 24.3168L10.0505 15.798C9.87751 15.2901 10.1632 14.7419 10.6887 14.5747L18.6689 12.0311C19.0729 11.9025 19.516 12.0343 19.7764 12.3592L25.7905 19.8874C26.2132 20.4167 25.9676 21.1896 25.3114 21.3994L25.3106 21.4002Z" fill="#FF5061"/>
<path d="M34.5582 22.8403L22.3445 26.9493C22.0876 27.0358 21.8049 26.9493 21.6377 26.7317L15.1378 18.2995C14.8624 17.9419 15.0183 17.4136 15.4416 17.2711L31.0595 12.0166C31.5635 11.8469 32.0402 12.338 31.8697 12.8506L30.1902 17.8933C30.0981 18.1702 30.1967 18.4767 30.4326 18.6432L34.723 21.6775C35.1592 21.9857 35.0623 22.6697 34.5582 22.8395V22.8403Z" fill="#FF5061"/>
</g>
<defs>
<clipPath id="clip0_179_572">
<rect width="41" height="41" rx="12" fill="white"/>
</clipPath>
</defs>
</svg>
