<svg width="76" height="75" viewBox="0 0 76 75" fill="none" xmlns="http://www.w3.org/2000/svg">
<rect x="0.5" width="75" height="75" rx="20" fill="#FFEBD6"/>
<g clip-path="url(#clip0_92_596)">
<path d="M7 76.4613V56.1352C7.55157 53.0531 9.3802 50.3959 12.2039 49.0045L15.1829 48.0157C8.43731 46.9635 6.44843 37.9222 12.3704 34.2972C21.6899 28.5902 29.1287 44.0727 18.5258 47.7635L17.4165 48.0778C22.8427 48.5474 28.0243 46.7001 31.0306 42.0441C32.8791 39.1819 32.807 37.4824 33.1772 34.2749C33.74 29.394 40.0296 27.579 43.1328 31.481C44.959 33.7792 44.3503 37.4613 43.7639 40.1484C41.7912 49.1959 34.6257 56.4222 25.654 58.6073L25.4813 76.5296C25.2453 77.3657 24.6465 77.7508 23.8067 77.8303C19.0215 78.2813 13.5356 77.4837 8.67583 77.8253C7.80127 77.7247 7.36896 77.2092 7.00248 76.4613H7Z" fill="#FF850B"/>
<path d="M39.2348 14.3672C39.8547 14.6827 40.4336 15.0765 40.5702 15.8219C40.7069 16.5673 40.6945 19.299 40.5988 20.1313C40.3429 22.3625 37.1341 22.3625 36.8794 20.1313C36.7838 19.299 36.7664 16.6033 36.908 15.8219C37.0496 15.0405 37.6236 14.6827 38.2434 14.3672H39.2348Z" fill="#FF850B"/>
<path d="M62.2993 47.9551C62.595 48.2955 63.2745 48.2681 63.7565 48.4172C67.5008 49.58 70.0648 52.6397 70.4859 56.5628L70.4275 76.469C70.2449 77.0492 69.871 77.4765 69.3095 77.7063C63.9864 77.9449 58.5862 77.8181 53.2382 77.7709C52.3972 77.5324 51.9959 76.8603 51.8829 76.028L51.8282 58.6064C48.9449 57.8411 46.2231 56.5814 43.7845 54.8721C43.4304 54.6236 41.4254 53.1602 41.4776 52.8683C43.8789 49.9266 45.9075 46.4693 46.7995 42.7499C46.9734 42.7102 47.0032 42.7748 47.1113 42.8704C47.6554 43.35 48.2268 44.1947 48.8405 44.7351C52.0183 47.534 55.8867 48.3625 60.0645 48.0768L58.9551 47.7625C53.9525 46.083 51.9872 39.9846 55.4743 35.8665C58.5675 32.2142 64.1069 32.3111 67.0597 36.0665C70.5878 40.5548 67.8511 47.1998 62.2969 47.9551H62.2993Z" fill="#FF850B"/>
<path d="M27.1751 18.1136C27.8546 17.9906 28.272 18.1459 28.8099 18.5285C29.4671 18.9969 32.2473 21.7758 32.7157 22.433C33.9952 24.2281 32.2187 26.2542 30.3665 25.2766C29.8609 25.0095 26.5577 21.7237 26.1651 21.1721C25.349 20.0279 25.7291 18.3732 27.1751 18.1136Z" fill="#FF850B"/>
<path d="M49.492 18.1139C51.1355 17.8182 52.2871 19.4096 51.512 20.8767C51.2498 21.3736 47.8771 24.7613 47.3342 25.129C45.5726 26.3241 43.5987 24.5489 44.5614 22.729C44.8583 22.1674 47.9156 19.1264 48.5317 18.6406C48.8162 18.4158 49.1218 18.1797 49.492 18.1127V18.1139Z" fill="#FF850B"/>
</g>
<defs>
<clipPath id="clip0_92_596">
<rect x="1" y="7" width="74" height="68" rx="20" fill="white"/>
</clipPath>
</defs>
</svg>
