<svg width="37" height="36" viewBox="0 0 37 36" fill="none" xmlns="http://www.w3.org/2000/svg">
<rect x="0.507812" width="35.9453" height="35.9453" rx="10.2701" fill="#EFF8D4"/>
<path d="M9.3125 8.19922V23.7994C9.3125 25.8004 10.9349 27.4228 12.9359 27.4228H15.5769C16.9277 27.4228 18.0223 28.5174 18.0223 29.8682H18.8843C18.8843 28.5174 19.9789 27.4228 21.3297 27.4228H23.9707C25.9717 27.4228 27.5941 25.8004 27.5941 23.7994V8.19922H9.3125Z" fill="#0E5A67"/>
<path d="M24.9193 21.5683C24.8662 21.9844 24.3586 22.5788 23.9216 22.5788H21.181V21.4035C21.181 20.7876 20.4972 20.1859 19.9015 20.1549C19.726 20.1455 19.4638 20.3903 19.3185 20.4931L20.0676 22.4605C19.1599 23.2505 17.7472 23.2505 16.8395 22.4605L17.5885 20.4931C17.4715 20.4004 17.1663 20.1489 17.0278 20.1516C16.5262 20.1623 15.9997 20.5617 15.8256 21.0236C15.8021 21.0862 15.7254 21.3289 15.7254 21.378V22.5781H14.4116L14.737 23.147C14.5602 23.2371 14.3296 23.4273 14.1514 23.4939C14.1198 23.506 14.0916 23.5262 14.0573 23.502L12.1888 20.2403L12.7939 19.8847H12.8706L13.9941 21.8204H14.9663V21.2771C14.9663 21.189 15.0618 20.875 15.0988 20.7776C15.2265 20.4407 15.4511 20.1543 15.6992 19.9001C15.2312 19.9001 14.7881 19.9257 14.3296 19.8167C13.0447 19.5101 12.0785 18.3503 11.9844 17.0331L11.9857 12.7488C12.7865 12.8847 13.5557 12.9936 14.1319 13.6216C14.8103 14.3605 14.7586 15.2433 14.7391 16.186H16.7346V14.4674H16.1537V13.5705C16.1537 13.4871 16.2357 13.2464 16.2754 13.1617C16.4079 12.8773 16.7057 12.5996 17.0123 12.5222V11.4102H17.7701V12.5095L18.4398 13.3304L19.1343 12.5095V11.4102H19.8921V12.5222C20.196 12.5982 20.4999 12.8793 20.6297 13.1617C20.6639 13.237 20.7513 13.4999 20.7513 13.5711V14.4681H20.1704V16.1866H22.166V14.9865C22.166 14.6207 22.4457 14.0351 22.6716 13.7486C23.2512 13.0144 24.0453 12.8974 24.9193 12.7495V17.1212L24.7748 17.7728C24.4715 18.7282 23.6271 19.5431 22.6562 19.7979C22.17 19.9257 21.7034 19.9048 21.2052 19.9015C21.4533 20.1563 21.6779 20.442 21.8056 20.7789C21.8426 20.8764 21.9381 21.1897 21.9381 21.2785V21.8217H22.6199C22.1041 20.1462 24.5267 19.5148 24.9187 21.2153C24.9086 21.3275 24.9328 21.46 24.9187 21.5689L24.9193 21.5683Z" fill="#EFF8D4"/>
</svg>
