<svg width="29" height="29" viewBox="0 0 29 29" fill="none" xmlns="http://www.w3.org/2000/svg">
<path d="M1.30469 8.3833C1.36328 8.34033 1.42969 8.30322 1.5 8.27002C1.57031 8.23486 1.64844 8.20361 1.72656 8.17432C5.60547 6.81299 9.51562 5.45166 13.3945 4.06299C13.6484 3.979 13.8711 3.979 14.1211 4.06299L17.3086 5.18213L25.9336 8.20166C26.0469 8.23877 26.1445 8.28564 26.2266 8.34033C26.3164 8.40088 26.3906 8.47119 26.4414 8.55322C26.4688 8.6001 26.4922 8.64893 26.5078 8.70166C26.5352 8.77783 26.5469 8.86182 26.5469 8.95166C26.5469 9.08838 26.5195 9.20752 26.4609 9.31299C26.418 9.39307 26.3555 9.46338 26.2773 9.52588C26.1875 9.59814 26.0742 9.65674 25.9336 9.70166L14.0547 13.8911L13.9883 13.9048C13.9375 13.9146 13.8828 13.9185 13.8281 13.9204L13.7578 13.9185C13.6445 13.9126 13.5273 13.8931 13.4258 13.8677L1.61328 9.70166C1.33594 9.59033 1.14062 9.42432 1 9.17432V8.729C1.08203 8.57861 1.18359 8.46924 1.30469 8.3833Z" fill="#020202"/>
<path d="M6.25 12.9243C6.78125 13.1196 7.25391 13.2856 7.75781 13.4517L8.84766 13.8384L12.8672 15.2583C13.4805 15.479 14.0664 15.479 14.6836 15.2583L20.9922 13.0083L21.1367 12.9653L21.2969 12.9243V16.0083C21.2969 16.5356 21.1016 16.9243 20.7109 17.2583C20.0703 17.7856 19.3164 18.063 18.5625 18.2856C16.7188 18.813 14.8477 19.0083 12.9492 18.9243C11.3594 18.8403 9.82422 18.6196 8.34375 18.063C8.16406 17.9946 7.98828 17.9146 7.81641 17.8286C7.57031 17.7056 7.33203 17.5669 7.09766 17.4243L6.92188 17.313C6.47266 17.0083 6.25 16.563 6.27734 16.0083L6.25 12.9243Z" fill="#020202"/>
<path d="M24.0078 25.2017C24.3984 25.229 24.7617 24.895 24.7617 24.479L24.7891 24.4243L24.7617 24.3716V20.8599L24.7891 20.813L24.8359 20.7603C24.8633 20.7231 24.8906 20.6919 24.9297 20.6743C25.3203 20.3677 25.543 19.979 25.543 19.4517C25.543 19.311 25.5273 19.1821 25.4961 19.063C25.4375 18.854 25.332 18.6724 25.1914 18.5103C25.0781 18.3774 24.9414 18.2583 24.7891 18.145L24.7617 18.0728V11.7017C24.7031 11.729 24.6484 11.7563 24.6484 11.729C24.2578 11.8677 23.8945 12.0063 23.5039 12.1177C23.3359 12.1743 23.3086 12.2563 23.3086 12.4243V17.9517C23.3086 18.0903 23.2539 18.2017 23.1406 18.2837C22.3047 18.895 22.332 20.0903 23.1406 20.7017C23.2266 20.7563 23.2812 20.895 23.2812 21.0063V24.4517C23.2812 24.6841 23.3867 24.8911 23.5469 25.0298C23.6758 25.1372 23.8359 25.2017 24.0078 25.2017Z" fill="#020202"/>
</svg>
