<svg width="159" height="52" viewBox="0 0 159 52" fill="none" xmlns="http://www.w3.org/2000/svg">
<path d="M56.6125 35.4785L47.6418 25.3972L56.2992 15.5438H61.1405L51.6003 26.3085L51.7997 24.2866L61.7955 35.4785H56.6125ZM43.8542 35.4785V15.5438H47.9836V35.4785H43.8542ZM68.2471 35.8203C67.8484 35.8203 67.4782 35.7918 67.1365 35.7348C66.8137 35.6968 66.5005 35.6304 66.1967 35.5355V32.1181C66.7853 32.3079 67.3833 32.4029 67.9908 32.4029C68.4655 32.4029 68.8926 32.3364 69.2723 32.2035C69.6521 32.0516 69.9938 31.8238 70.2976 31.52C70.6203 31.1973 70.9051 30.7891 71.1519 30.2955L71.9778 28.6153L71.9208 31.0074L63.0926 15.5438H67.5637L73.2308 25.9383H73.3732L78.2145 15.5438H82.4577L75.3667 30.2385C74.7022 31.6055 74.0377 32.6971 73.3732 33.5135C72.7087 34.3109 71.9683 34.8995 71.1519 35.2792C70.3355 35.6399 69.3673 35.8203 68.2471 35.8203ZM84.4557 35.4785V15.5438H99.6915V18.9612H88.585V32.0611H93.3409C94.5939 32.0611 95.5337 31.8238 96.1602 31.3492C96.8057 30.8745 97.1285 30.1626 97.1285 29.2133C97.1285 28.264 96.8152 27.5521 96.1887 27.0775C95.5622 26.6028 94.6129 26.3655 93.3409 26.3655H86.5915V22.9481H93.5972C95.3438 22.9481 96.8057 23.1854 97.9828 23.6601C99.1599 24.1347 100.043 24.8372 100.631 25.7675C101.239 26.6977 101.543 27.8464 101.543 29.2133C101.543 31.2637 100.869 32.8206 99.5206 33.8837C98.1727 34.9469 96.1982 35.4785 93.5972 35.4785H84.4557ZM105.091 35.4785V15.5438H120.185V19.1036H109.221V35.4785H105.091ZM118.47 35.4785L126.558 15.5438H131.741L139.829 35.4785H135.443L129.178 19.5307H129.036L122.742 35.4785H118.47ZM122.23 31.7764L123.54 28.359H134.646L135.956 31.7764H122.23ZM143.837 35.8203C143.438 35.8203 143.068 35.7918 142.726 35.7348C142.403 35.6968 142.09 35.6304 141.786 35.5355V32.1181C142.375 32.3079 142.973 32.4029 143.58 32.4029C144.055 32.4029 144.482 32.3364 144.862 32.2035C145.242 32.0516 145.583 31.8238 145.887 31.52C146.21 31.1973 146.495 30.7891 146.741 30.2955L147.567 28.6153L147.51 31.0074L138.682 15.5438H143.153L148.82 25.9383H148.963L153.804 15.5438H158.047L150.956 30.2385C150.292 31.6055 149.627 32.6971 148.963 33.5135C148.298 34.3109 147.558 34.8995 146.741 35.2792C145.925 35.6399 144.957 35.8203 143.837 35.8203Z" fill="black"/>
<path d="M13.0859 36.846L13.034 36.7941C10.524 32.8647 10.8205 28.7212 13.893 24.7896C15.1783 23.1495 20.9988 17.0629 24.9108 13.0059C25.6941 14.7217 26.0857 16.5717 26.0857 18.4239C26.0857 21.5462 24.9714 24.6706 22.7427 27.1503L22.1975 27.7085L13.0859 36.8482V36.846Z" fill="url(#paint0_radial_91_525)"/>
<path d="M4.00013 27.2015C3.95902 27.0435 3.9244 26.8812 3.89844 26.7168C3.92657 26.8834 3.96118 27.0435 4.00013 27.2015Z" fill="url(#paint1_radial_91_525)"/>
<path d="M26.0821 38.2734V46.0153C22.3172 46.0153 15.9298 47.5992 13.2273 51.2429C13.1646 51.1715 13.104 51.1001 13.0391 51.0309V42.1249C13.065 42.1422 13.0888 42.1617 13.1148 42.179C16.8776 39.4873 21.4366 38.3492 26.08 38.2734H26.0821Z" fill="url(#paint2_radial_91_525)"/>
<path d="M13.0409 42.1249V51.0309C9.54213 47.1297 4.90738 46.0153 0 46.0153V38.2734C4.60878 38.3492 9.30845 39.4722 13.0409 42.1249Z" fill="url(#paint3_radial_91_525)"/>
<path d="M17.4643 4.42054C15.0236 6.87206 9.24852 12.6709 6.62822 15.2609C3.96248 17.8964 2.13628 22.0032 2.13844 25.5387C-1.16777 20.4864 -0.605192 13.6446 3.82833 9.20243L13.0567 0L17.4643 4.42054Z" fill="url(#paint4_radial_91_525)"/>
<path d="M12.5625 23.7481C10.0699 26.9331 9.18056 30.3432 9.90758 33.6754L4.31645 28.1016C4.31645 28.1016 4.31213 28.0972 4.31213 28.0929C4.29265 28.0496 4.27318 28.002 4.25154 27.9566C4.2299 27.909 4.21043 27.8614 4.19095 27.8116C4.17797 27.7835 4.16932 27.7532 4.15634 27.7229C4.13037 27.6537 4.10441 27.5823 4.08493 27.5087C4.05248 27.407 4.02218 27.3031 3.99622 27.1993C3.95727 27.0413 3.92265 26.879 3.89452 26.7146C3.8837 26.6605 3.87505 26.6064 3.86856 26.548C3.85557 26.4744 3.84908 26.3987 3.84043 26.323C3.83177 26.2559 3.82744 26.1866 3.82312 26.1196C3.82312 26.0936 3.81879 26.0655 3.81663 26.0395C3.8123 25.9832 3.80797 25.9248 3.80581 25.8664C3.80581 25.8188 3.80148 25.769 3.79932 25.7193C3.72358 22.6402 5.4178 18.8277 7.81307 16.4606C8.02295 16.2529 8.25231 16.0257 8.50114 15.7812L8.68939 15.5929C8.88196 15.4025 9.08103 15.2034 9.28875 14.9979L9.49863 14.788C9.71284 14.576 9.93138 14.3574 10.1586 14.1302C10.2343 14.0545 10.31 13.9809 10.3858 13.903C10.4658 13.823 10.548 13.7407 10.6324 13.6585C10.7038 13.585 10.7774 13.5135 10.8531 13.4378C11.7619 12.529 12.7356 11.5554 13.692 10.5968C13.7569 10.5319 13.8196 10.467 13.8867 10.4021C14.0144 10.2723 14.142 10.1424 14.2719 10.0148L14.4644 9.8222C14.5293 9.75729 14.5899 9.69454 14.6548 9.62962C14.7198 9.56471 14.7803 9.50196 14.8453 9.43921C14.9102 9.3743 14.9708 9.31155 15.0335 9.2488C15.1114 9.17091 15.1893 9.09301 15.2672 9.01511C15.3754 8.90693 15.4836 8.79874 15.5896 8.69055C15.6502 8.62997 15.7108 8.57155 15.7713 8.5088C16.0137 8.26646 16.2474 8.03061 16.4746 7.80342C16.5308 7.745 16.5892 7.68875 16.6455 7.63249C17.4309 6.84272 18.1233 6.14598 18.6599 5.60938L22.2518 9.20986C22.6391 9.59933 23.0221 9.99313 23.3574 10.4259C23.6128 10.7548 23.8508 11.0923 24.0693 11.4407C20.1421 15.5064 13.9516 21.9738 12.5668 23.7438L12.5625 23.7481Z" fill="url(#paint5_radial_91_525)"/>
<path d="M26.0857 18.4217C26.0857 21.544 24.9714 24.6685 22.7427 27.1481L22.1975 27.7064L13.0859 36.846L13.034 36.7941C10.524 32.8647 10.8205 28.7212 13.893 24.7896C15.1783 23.1495 20.9988 17.0629 24.9108 13.0059C25.6941 14.7217 26.0857 16.5717 26.0857 18.4239V18.4217Z" fill="url(#paint6_radial_91_525)"/>
<defs>
<radialGradient id="paint0_radial_91_525" cx="0" cy="0" r="1" gradientUnits="userSpaceOnUse" gradientTransform="translate(33.7887 17.0088) scale(42.7643 42.7643)">
<stop stop-color="#EBFF00"/>
<stop offset="1" stop-color="#008900"/>
</radialGradient>
<radialGradient id="paint1_radial_91_525" cx="0" cy="0" r="1" gradientUnits="userSpaceOnUse" gradientTransform="translate(3.95902 26.7125) scale(0.53443 0.534458)">
<stop stop-color="#EBFF00"/>
<stop offset="1" stop-color="#008900"/>
</radialGradient>
<radialGradient id="paint2_radial_91_525" cx="0" cy="0" r="1" gradientUnits="userSpaceOnUse" gradientTransform="translate(-2.21969 27.3811) scale(54.7363 54.7363)">
<stop stop-color="#EBFF00"/>
<stop offset="1" stop-color="#008900"/>
</radialGradient>
<radialGradient id="paint3_radial_91_525" cx="0" cy="0" r="1" gradientUnits="userSpaceOnUse" gradientTransform="translate(-6.14937 40.1299) scale(26.6357 26.6358)">
<stop stop-color="#EBFF00"/>
<stop offset="1" stop-color="#008900"/>
</radialGradient>
<radialGradient id="paint4_radial_91_525" cx="0" cy="0" r="1" gradientUnits="userSpaceOnUse" gradientTransform="translate(13.8054 -3.59615) scale(40.8689 40.8689)">
<stop stop-color="#EBFF00"/>
<stop offset="1" stop-color="#008900"/>
</radialGradient>
<radialGradient id="paint5_radial_91_525" cx="0" cy="0" r="1" gradientUnits="userSpaceOnUse" gradientTransform="translate(22.3859 -5.02762) scale(49.0197 49.0197)">
<stop stop-color="#EBFF00"/>
<stop offset="1" stop-color="#008900"/>
</radialGradient>
<radialGradient id="paint6_radial_91_525" cx="0" cy="0" r="1" gradientUnits="userSpaceOnUse" gradientTransform="translate(41.5847 22.02) scale(39.7848 39.7848)">
<stop stop-color="#EBFF00"/>
<stop offset="1" stop-color="#008900"/>
</radialGradient>
</defs>
</svg>
