<?xml version="1.0" encoding="UTF-8"?>
<svg id="Layer_1" xmlns="http://www.w3.org/2000/svg" version="1.1" viewBox="0 0 29 29">
  <!-- Generator: Adobe Illustrator 29.1.0, SVG Export Plug-In . SVG Version: 2.1.0 Build 142)  -->
  <path d="M18.2,4.5c2-.8,3.6,0,4.3,1.7,2.8-.3,4.1,2.4,3,4.4,1.4,1.4,1.8,3,.7,4.7-.9,1.6-2.4,2-4.2,1.7-.3.8-.7,1.4-1.5,1.7-.8.3-1.5.2-2.3-.1-.6.7-1.4,1-2.3,1.1,0,.6,0,1.1,0,1.7.1,1.3.4,2.5.9,3.6.1.3.3.5.6.7.3.1.6.3.8.5.2.2.4.5.6.7,1.4.2,2.9.6,4.3,1.1H5.3c1.4-.5,2.9-.9,4.4-1.1.3-.6.9-.9,1.4-1.1.4-.2.6-.5.8-.9.4-.9.6-1.8.7-2.7,0-.5,0-1,.1-1.5,0-.7-.2-1.4-.6-2-.5-.7-1.2-1.3-1.9-1.8.3.8.4,1.5.1,2.3-.2.6-.6,1-1.1,1.4-1,.7-2.4.7-3.4,0-1.2-.8-1.5-2-1-3.9-.9-.8-1.1-1.8-.7-2.9-1.7-1.2-2.5-2.8-1.7-4.8.6-1.8,2.1-2.7,4.1-2.7-.2-1.2,0-2.2,1-3,.9-.7,2-.8,3.1-.3,1.1-1.6,2.5-2.3,4.4-1.9,1.9.4,2.9,1.7,3.3,3.5ZM12.7,8.2c-1.3,2.3-.8,5.5,1.2,6.9.3-2.4,0-4.7-1.2-6.9ZM15.8,14.7c.1-.2.2-.2.3-.3.4-.3.7-.8,1.1-1,.9-.6,1.6-1.3,2.2-2.1.2-.3.4-.5.7-.8,0,0,.1-.2.2-.4-.5,0-1,.1-1.4.2-.6.1-1.2.5-1.6,1-.7.9-1.2,2-1.4,3.1,0,0,0,.1,0,.3ZM17.7,18.2c-1.4-1.8-.4-4.2,2.1-4.2,0-.1.1-.2.2-.4-.7-.1-1.3,0-1.8.4-1.1.8-1.8,1.8-2.2,3.1-.1.5-.1,1-.2,1.5.7,0,1.2,0,1.7-.5ZM12.7,17.5c0-.2,0-.2,0-.2-.4-1.2-1-2.2-2.1-2.9-.7-.4-1.3-.9-2-1.4,0,0,0,0-.1,0-.2.2,0,.3,0,.4.4.6.8,1.1,1.2,1.7.3.4.5.8,1,1,.7.3,1.4.7,1.9,1.5ZM16.5,10c0-.3-.2-.5-.2-.7-1.1.6-1.6,1.9-1,2.7.4-.6.8-1.3,1.3-2ZM10.2,12.8c.3.1.5.2.8.4,0-.3,0-.6-.1-.9-.3.2-.4.3-.7.5Z"/>
</svg>