<svg width="29" height="29" viewBox="0 0 29 29" fill="none" xmlns="http://www.w3.org/2000/svg">
<path d="M4 15.2071L4.02344 15.2774L4.02734 15.3556C4.09766 15.6954 4.27734 15.9532 4.53906 16.0958C4.69141 16.1798 4.87109 16.2247 5.07422 16.2247H6.42578L6.45312 16.254V24.9903C6.4375 25.3126 6.52734 25.5509 6.72656 25.6817C6.83984 25.7579 6.98828 25.7989 7.17188 25.7989H11.8867C12.3828 25.7989 12.6055 25.4688 12.6055 25.0196V19.7247H15.5273V25.0509C15.5273 25.2149 15.5547 25.3536 15.6133 25.4649C15.7148 25.6602 15.9062 25.7677 16.1875 25.7677H21.0156C21.457 25.7677 21.6758 25.5294 21.6758 25.0196V16.2247L21.7031 16.1934H23.0547C23.1992 16.1895 23.332 16.1602 23.4531 16.1095L23.5859 16.045C23.8047 15.92 23.9688 15.7267 24.0625 15.5001C24.1875 15.2013 24.1875 14.8458 24.0195 14.5177C23.9375 14.3692 23.8281 14.2501 23.7148 14.129L16.8516 7.33798C16.1875 6.70907 15.5273 6.05087 14.8633 5.39267C14.3398 4.88485 13.7891 4.8536 13.2656 5.39267C10.3711 8.23446 7.47266 11.1075 4.57812 13.9806L4.44922 14.1153C4.26172 14.3028 4.07031 14.4962 4.02734 14.7872C4.01172 14.8067 4.00391 14.836 4 14.8614V15.2071Z" fill="black"/>
<path d="M17.5664 6.2911L22.1172 10.7794V7.03915C22.1172 6.53134 21.8945 6.2911 21.4258 6.2911H17.5664Z" fill="black"/>
</svg>
