<svg width="289" height="54" viewBox="0 0 289 54" fill="none" xmlns="http://www.w3.org/2000/svg">
<line x1="173.157" y1="51.3691" x2="173.157" y2="1.86445" stroke="black" stroke-width="0.685348"/>
<path d="M267.544 50.9988V40.5419H263.219V39.3984H273.112V40.5419H268.787V50.9988H267.544Z" fill="black"/>
<path d="M251.5 50.9988V39.3984H252.743V49.325H252.793L259.786 39.3984H261.228V50.9988H259.985V41.0722H259.919L252.942 50.9988H251.5Z" fill="black"/>
<path d="M237.031 53.816V49.8553H237.363C237.849 49.8553 238.235 49.673 238.523 49.3084C238.81 48.9439 238.981 48.3583 239.036 47.5518L239.616 39.3984H247.505V50.4353H246.262V40.5419H240.76L240.246 47.6513C240.202 48.1816 240.108 48.6235 239.964 48.977C239.821 49.3195 239.622 49.5957 239.368 49.8056V49.8553H249.294V53.816H248.052V50.9988H238.274V53.816H237.031Z" fill="black"/>
<path d="M227.336 50.9988V39.3984H235.804V40.5419H228.579V49.8553H235.804V50.9988H227.336ZM228.015 45.5963V44.5192H234.893V45.5963H228.015Z" fill="black"/>
<path d="M215.879 50.9988V39.3984H220.221C221.679 39.3984 222.795 39.7409 223.568 40.4259C224.353 41.1109 224.745 42.0886 224.745 43.3591C224.745 44.1988 224.568 44.9169 224.215 45.5135C223.872 46.1101 223.364 46.563 222.69 46.8724C222.016 47.1707 221.193 47.3198 220.221 47.3198H216.525V46.1763H220.221C221.27 46.1763 222.071 45.9333 222.624 45.4472C223.176 44.9611 223.452 44.2651 223.452 43.3591C223.452 42.4421 223.171 41.7461 222.607 41.2711C222.055 40.785 221.259 40.5419 220.221 40.5419H217.122V50.9988H215.879Z" fill="black"/>
<path d="M212.507 50.9988L206.227 45.1323L212.192 39.3984H213.717L207.469 45.414L207.552 44.7677L214.165 50.9988H212.507ZM205.133 50.9988V39.3984H206.376V50.9988H205.133Z" fill="black"/>
<path d="M188.223 50.9988V39.3984H189.466V49.325H189.515L196.509 39.3984H197.95V50.9988H196.707V41.0722H196.641L189.664 50.9988H188.223Z" fill="black"/>
<path d="M267.246 31.9988V20.3984H268.489V30.8553H271.24C272.301 30.8553 273.107 30.6344 273.659 30.1924C274.223 29.7395 274.505 29.0766 274.505 28.2038C274.505 27.331 274.228 26.6681 273.676 26.2152C273.124 25.7622 272.312 25.5357 271.24 25.5357H267.909V24.3923H271.24C272.223 24.3923 273.052 24.5414 273.726 24.8397C274.411 25.127 274.93 25.5523 275.283 26.1157C275.637 26.6792 275.814 27.3752 275.814 28.2038C275.814 29.0103 275.637 29.7008 275.283 30.2753C274.93 30.8387 274.411 31.2696 273.726 31.5679C273.041 31.8552 272.212 31.9988 271.24 31.9988H267.246ZM277.852 31.9988V20.3984H279.095V31.9988H277.852Z" fill="black"/>
<path d="M259.29 32.1642C258.153 32.1642 257.142 31.9101 256.258 31.4019C255.385 30.8937 254.711 30.1866 254.236 29.2807C253.761 28.3748 253.523 27.3473 253.523 26.1983C253.523 25.0493 253.761 24.0219 254.236 23.1159C254.711 22.21 255.385 21.5029 256.258 20.9947C257.142 20.4865 258.153 20.2324 259.29 20.2324C260.263 20.2324 261.13 20.4147 261.892 20.7793C262.655 21.1439 263.268 21.641 263.732 22.2708C264.196 22.9005 264.489 23.602 264.61 24.3754H263.334C263.224 23.823 262.992 23.3203 262.638 22.8674C262.284 22.4033 261.82 22.0388 261.246 21.7736C260.671 21.5085 260.02 21.3759 259.29 21.3759C258.396 21.3759 257.606 21.5858 256.921 22.0056C256.247 22.4144 255.728 22.9834 255.363 23.7125C254.998 24.4417 254.816 25.2703 254.816 26.1983C254.816 27.1263 254.998 27.9549 255.363 28.6841C255.728 29.4133 256.247 29.9878 256.921 30.4076C257.606 30.8164 258.396 31.0207 259.29 31.0207C260.031 31.0207 260.683 30.8937 261.246 30.6396C261.82 30.3855 262.284 30.0319 262.638 29.579C262.992 29.126 263.235 28.6068 263.367 28.0212H264.643C264.489 28.8056 264.174 29.5127 263.699 30.1424C263.235 30.7722 262.627 31.2693 261.876 31.6339C261.124 31.9874 260.263 32.1642 259.29 32.1642Z" fill="black"/>
<path d="M249.578 31.9988V20.3984H250.821V31.9988H249.578ZM241.176 31.9988V20.3984H242.419V31.9988H241.176ZM241.806 26.5798V25.4363H250.158V26.5798H241.806Z" fill="black"/>
<path d="M227.969 31.9988L232.775 20.3984H234.399L239.188 31.9988H237.862L233.603 21.5916H233.553L229.261 31.9988H227.969ZM229.792 29.3141L230.206 28.237H236.967L237.382 29.3141H229.792Z" fill="black"/>
<path d="M224.75 31.9988V20.3984H225.993V31.9988H224.75ZM216.348 31.9988V20.3984H217.591V31.9988H216.348ZM216.977 26.5798V25.4363H225.33V26.5798H216.977Z" fill="black"/>
<path d="M203.355 31.9988V20.3984H204.598V30.325H204.648L211.641 20.3984H213.083V31.9988H211.84V22.0722H211.774L204.797 31.9988H203.355Z" fill="black"/>
<path d="M194.503 31.0207V29.8939H194.702C196.171 29.8939 197.342 29.59 198.215 28.9824C199.088 28.3637 199.524 27.4357 199.524 26.1983C199.524 25.3697 199.32 24.6792 198.911 24.1268C198.502 23.5744 197.939 23.1657 197.221 22.9005C196.503 22.6354 195.663 22.5028 194.702 22.5028H194.486V21.3759H194.669C195.895 21.3759 196.967 21.5527 197.884 21.9062C198.812 22.2597 199.53 22.8011 200.038 23.5302C200.557 24.2484 200.817 25.1377 200.817 26.1983C200.817 27.27 200.557 28.1648 200.038 28.883C199.53 29.6011 198.817 30.1369 197.9 30.4904C196.994 30.844 195.939 31.0207 194.735 31.0207H194.503ZM193.558 31.0207C192.354 31.0207 191.294 30.844 190.377 30.4904C189.471 30.1369 188.758 29.6011 188.239 28.883C187.731 28.1648 187.477 27.27 187.477 26.1983C187.477 25.1377 187.731 24.2484 188.239 23.5302C188.758 22.8011 189.476 22.2597 190.393 21.9062C191.321 21.5527 192.398 21.3759 193.625 21.3759H193.807V22.5028H193.592C192.111 22.5028 190.935 22.8121 190.062 23.4308C189.2 24.0384 188.769 24.9609 188.769 26.1983C188.769 27.038 188.974 27.734 189.382 28.2864C189.791 28.8277 190.355 29.231 191.073 29.4961C191.791 29.7613 192.63 29.8939 193.592 29.8939H193.79V31.0207H193.558ZM193.525 32.1642V20.2324H194.768V32.1642H193.525Z" fill="black"/>
<path d="M282.497 12.9988V2.5419H278.172V1.39844H288.065V2.5419H283.74V12.9988H282.497Z" fill="black"/>
<path d="M268.348 12.9988V1.39844H276.816V2.5419H269.591V11.8553H276.816V12.9988H268.348ZM269.027 7.59634V6.51916H275.904V7.59634H269.027Z" fill="black"/>
<path d="M260.794 12.9988V2.5419H256.469V1.39844H266.362V2.5419H262.037V12.9988H260.794Z" fill="black"/>
<path d="M247.695 12.9988V1.39844H248.938V11.8553H252.004C253.065 11.8553 253.871 11.6344 254.424 11.1924C254.987 10.7395 255.269 10.0766 255.269 9.20381C255.269 8.33102 254.992 7.66815 254.44 7.21518C253.888 6.76222 253.076 6.53573 252.004 6.53573H248.358V5.39227H252.004C252.987 5.39227 253.816 5.54142 254.49 5.83971C255.175 6.12696 255.688 6.55783 256.031 7.13232C256.385 7.69577 256.561 8.38626 256.561 9.20381C256.561 10.0103 256.385 10.7008 256.031 11.2753C255.677 11.8387 255.158 12.2696 254.473 12.5679C253.799 12.8552 252.976 12.9988 252.004 12.9988H247.695Z" fill="black"/>
<path d="M234.524 13.1645C234.38 13.1645 234.242 13.1535 234.11 13.1314C233.977 13.1093 233.861 13.0761 233.762 13.0319V11.8885C233.916 11.9437 234.099 11.9713 234.309 11.9713C234.64 11.9713 234.905 11.9161 235.104 11.8056C235.314 11.6841 235.474 11.4742 235.585 11.1759C235.695 10.8776 235.767 10.4688 235.8 9.94955L236.38 1.39844H244.417V12.9988H243.175V2.5419H237.524L237.026 10.0158C236.949 11.1538 236.712 11.9658 236.314 12.4519C235.916 12.927 235.319 13.1645 234.524 13.1645Z" fill="black"/>
<path d="M226.425 13.1645C226.259 13.1645 226.099 13.1479 225.945 13.1148C225.79 13.0927 225.646 13.054 225.514 12.9988V11.8553C225.79 11.9658 226.094 12.021 226.425 12.021C226.712 12.021 226.972 11.9713 227.204 11.8719C227.436 11.7614 227.646 11.5902 227.834 11.3582C228.033 11.1151 228.232 10.7947 228.43 10.397L228.894 9.46896V10.3141L223.906 1.39844H225.265L229.276 8.65694H229.325L232.872 1.39844H234.197L229.773 10.3307C229.419 11.0488 229.088 11.6067 228.778 12.0045C228.469 12.4022 228.127 12.695 227.751 12.8828C227.375 13.0706 226.933 13.1645 226.425 13.1645Z" fill="black"/>
<path d="M222.3 12.9988L216.02 7.13232L221.985 1.39844H223.51L217.262 7.41404L217.345 6.76774L223.957 12.9988H222.3ZM214.926 12.9988V1.39844H216.169V12.9988H214.926Z" fill="black"/>
<path d="M201.723 12.9988L206.529 1.39844H208.153L212.942 12.9988H211.616L207.357 2.59162H207.307L203.015 12.9988H201.723ZM203.546 10.3141L203.96 9.23695H210.721L211.136 10.3141H203.546Z" fill="black"/>
<path d="M194.503 12.0207V10.8939H194.702C196.171 10.8939 197.342 10.59 198.215 9.98239C199.088 9.36371 199.524 8.43568 199.524 7.19831C199.524 6.36972 199.32 5.67922 198.911 5.12682C198.502 4.57443 197.939 4.16565 197.221 3.9005C196.503 3.63535 195.663 3.50277 194.702 3.50277H194.486V2.37588H194.669C195.895 2.37588 196.967 2.55265 197.884 2.90619C198.812 3.25972 199.53 3.80107 200.038 4.53023C200.557 5.24835 200.817 6.13771 200.817 7.19831C200.817 8.26996 200.557 9.16485 200.038 9.88296C199.53 10.6011 198.817 11.1369 197.9 11.4904C196.994 11.844 195.939 12.0207 194.735 12.0207H194.503ZM193.558 12.0207C192.354 12.0207 191.294 11.844 190.377 11.4904C189.471 11.1369 188.758 10.6011 188.239 9.88296C187.731 9.16485 187.477 8.26996 187.477 7.19831C187.477 6.13771 187.731 5.24835 188.239 4.53023C188.758 3.80107 189.476 3.25972 190.393 2.90619C191.321 2.55265 192.398 2.37588 193.625 2.37588H193.807V3.50277H193.592C192.111 3.50277 190.935 3.81212 190.062 4.4308C189.2 5.03844 188.769 5.96094 188.769 7.19831C188.769 8.03796 188.974 8.73398 189.382 9.28637C189.791 9.82772 190.355 10.231 191.073 10.4961C191.791 10.7613 192.63 10.8939 193.592 10.8939H193.79V12.0207H193.558ZM193.525 13.1642V1.23242H194.768V13.1642H193.525Z" fill="black"/>
<path d="M143.838 36.6437C143.439 36.6437 143.069 36.6152 142.727 36.5582C142.405 36.5202 142.091 36.4538 141.788 36.3589V32.9415C142.376 33.1313 142.974 33.2263 143.582 33.2263C144.056 33.2263 144.484 33.1598 144.863 33.0269C145.243 32.875 145.585 32.6472 145.889 32.3434C146.211 32.0207 146.496 31.6125 146.743 31.1189L147.569 29.4387L147.512 31.8308L138.684 16.3672H143.155L148.822 26.7617H148.964L153.806 16.3672H158.049L150.958 31.0619C150.293 32.4289 149.629 33.5205 148.964 34.3369C148.3 35.1343 147.559 35.7229 146.743 36.1026C145.927 36.4633 144.958 36.6437 143.838 36.6437Z" fill="black"/>
<path d="M118.473 36.3019L126.56 16.3672H131.743L139.831 36.3019H135.446L129.18 20.3541H129.038L122.744 36.3019H118.473ZM122.232 32.5998L123.542 29.1824H134.648L135.958 32.5998H122.232Z" fill="black"/>
<path d="M105.094 36.3019V16.3672H120.187V19.927H109.223V36.3019H105.094Z" fill="black"/>
<path d="M84.457 36.3019V16.3672H99.6929V19.7846H88.5864V32.8845H93.3422C94.5953 32.8845 95.535 32.6472 96.1616 32.1726C96.8071 31.6979 97.1298 30.986 97.1298 30.0367C97.1298 29.0874 96.8166 28.3755 96.19 27.9009C95.5635 27.4262 94.6142 27.1889 93.3422 27.1889H86.5929V23.7715H93.5985C95.3452 23.7715 96.8071 24.0088 97.9842 24.4835C99.1613 24.9581 100.044 25.6606 100.633 26.5909C101.24 27.5211 101.544 28.6698 101.544 30.0367C101.544 32.0871 100.87 33.644 99.522 34.7071C98.174 35.7703 96.1995 36.3019 93.5985 36.3019H84.457Z" fill="black"/>
<path d="M68.2483 36.6437C67.8496 36.6437 67.4794 36.6152 67.1377 36.5582C66.8149 36.5202 66.5016 36.4538 66.1979 36.3589V32.9415C66.7864 33.1313 67.3845 33.2263 67.992 33.2263C68.4666 33.2263 68.8938 33.1598 69.2735 33.0269C69.6532 32.875 69.995 32.6472 70.2987 32.3434C70.6215 32.0207 70.9063 31.6125 71.1531 31.1189L71.9789 29.4387L71.922 31.8308L63.0938 16.3672H67.5648L73.232 26.7617H73.3744L78.2157 16.3672H82.4589L75.3678 31.0619C74.7034 32.4289 74.0389 33.5205 73.3744 34.3369C72.7099 35.1343 71.9695 35.7229 71.1531 36.1026C70.3367 36.4633 69.3684 36.6437 68.2483 36.6437Z" fill="black"/>
<path d="M56.6137 36.3019L47.6431 26.2206L56.3004 16.3672H61.1417L51.6015 27.1319L51.8009 25.11L61.7967 36.3019H56.6137ZM43.8555 36.3019V16.3672H47.9848V36.3019H43.8555Z" fill="black"/>
<path d="M13.0859 37.6722L13.034 37.6203C10.524 33.6909 10.8205 29.5473 13.893 25.6158C15.1783 23.9757 20.9988 17.8891 24.9108 13.832C25.6941 15.5479 26.0857 17.3979 26.0857 19.2501C26.0857 22.3724 24.9714 25.4968 22.7427 27.9765L22.1975 28.5347L13.0859 37.6744V37.6722Z" fill="url(#paint0_radial_91_225)"/>
<path d="M4.00013 28.0277C3.95902 27.8697 3.9244 27.7074 3.89844 27.543C3.92657 27.7096 3.96118 27.8697 4.00013 28.0277Z" fill="url(#paint1_radial_91_225)"/>
<path d="M26.0821 39.0996V46.8415C22.3172 46.8415 15.9298 48.4254 13.2273 52.0691C13.1646 51.9977 13.104 51.9263 13.0391 51.8571V42.9511C13.065 42.9684 13.0888 42.9879 13.1148 43.0052C16.8776 40.3135 21.4366 39.1753 26.08 39.0996H26.0821Z" fill="url(#paint2_radial_91_225)"/>
<path d="M13.0409 42.9511V51.8571C9.54213 47.9558 4.90738 46.8415 0 46.8415V39.0996C4.60878 39.1753 9.30845 40.2983 13.0409 42.9511Z" fill="url(#paint3_radial_91_225)"/>
<path d="M17.4643 5.24671C15.0236 7.69823 9.24852 13.4971 6.62822 16.0871C3.96248 18.7225 2.13628 22.8293 2.13844 26.3649C-1.16777 21.3125 -0.605192 14.4708 3.82833 10.0286L13.0567 0.826172L17.4643 5.24671Z" fill="url(#paint4_radial_91_225)"/>
<path d="M12.5625 24.5743C10.0699 27.7593 9.18056 31.1694 9.90758 34.5015L4.31645 28.9277C4.31645 28.9277 4.31213 28.9234 4.31213 28.9191C4.29265 28.8758 4.27318 28.8282 4.25154 28.7828C4.2299 28.7352 4.21043 28.6875 4.19095 28.6378C4.17797 28.6096 4.16932 28.5794 4.15634 28.5491C4.13037 28.4798 4.10441 28.4084 4.08493 28.3349C4.05248 28.2332 4.02218 28.1293 3.99622 28.0254C3.95727 27.8675 3.92265 27.7052 3.89452 27.5408C3.8837 27.4867 3.87505 27.4326 3.86856 27.3742C3.85557 27.3006 3.84908 27.2249 3.84043 27.1491C3.83177 27.0821 3.82744 27.0128 3.82312 26.9457C3.82312 26.9198 3.81879 26.8916 3.81663 26.8657C3.8123 26.8094 3.80797 26.751 3.80581 26.6926C3.80581 26.645 3.80148 26.5952 3.79932 26.5454C3.72358 23.4664 5.4178 19.6539 7.81307 17.2868C8.02295 17.079 8.25231 16.8518 8.50114 16.6073L8.68939 16.4191C8.88196 16.2287 9.08103 16.0296 9.28875 15.8241L9.49863 15.6142C9.71284 15.4021 9.93138 15.1836 10.1586 14.9564C10.2343 14.8807 10.31 14.8071 10.3858 14.7292C10.4658 14.6491 10.548 14.5669 10.6324 14.4847C10.7038 14.4111 10.7774 14.3397 10.8531 14.264C11.7619 13.3552 12.7356 12.3815 13.692 11.423C13.7569 11.3581 13.8196 11.2932 13.8867 11.2283C14.0144 11.0984 14.142 10.9686 14.2719 10.8409L14.4644 10.6484C14.5293 10.5835 14.5899 10.5207 14.6548 10.4558C14.7198 10.3909 14.7803 10.3281 14.8453 10.2654C14.9102 10.2005 14.9708 10.1377 15.0335 10.075C15.1114 9.99708 15.1893 9.91918 15.2672 9.84129C15.3754 9.7331 15.4836 9.62491 15.5896 9.51672C15.6502 9.45614 15.7108 9.39772 15.7713 9.33498C16.0137 9.09264 16.2474 8.85679 16.4746 8.62959C16.5308 8.57117 16.5892 8.51492 16.6455 8.45866C17.4309 7.66889 18.1233 6.97216 18.6599 6.43555L22.2518 10.036C22.6391 10.4255 23.0221 10.8193 23.3574 11.2521C23.6128 11.5809 23.8508 11.9185 24.0693 12.2669C20.1421 16.3325 13.9516 22.8 12.5668 24.5699L12.5625 24.5743Z" fill="url(#paint5_radial_91_225)"/>
<path d="M26.0857 19.2479C26.0857 22.3702 24.9714 25.4946 22.7427 27.9743L22.1975 28.5325L13.0859 37.6722L13.034 37.6203C10.524 33.6909 10.8205 29.5473 13.893 25.6158C15.1783 23.9757 20.9988 17.8891 24.9108 13.832C25.6941 15.5479 26.0857 17.3979 26.0857 19.2501V19.2479Z" fill="url(#paint6_radial_91_225)"/>
<defs>
<radialGradient id="paint0_radial_91_225" cx="0" cy="0" r="1" gradientUnits="userSpaceOnUse" gradientTransform="translate(33.7887 17.835) scale(42.7643 42.7643)">
<stop stop-color="#EBFF00"/>
<stop offset="1" stop-color="#008900"/>
</radialGradient>
<radialGradient id="paint1_radial_91_225" cx="0" cy="0" r="1" gradientUnits="userSpaceOnUse" gradientTransform="translate(3.95902 27.5386) scale(0.53443 0.534458)">
<stop stop-color="#EBFF00"/>
<stop offset="1" stop-color="#008900"/>
</radialGradient>
<radialGradient id="paint2_radial_91_225" cx="0" cy="0" r="1" gradientUnits="userSpaceOnUse" gradientTransform="translate(-2.21969 28.2073) scale(54.7363 54.7363)">
<stop stop-color="#EBFF00"/>
<stop offset="1" stop-color="#008900"/>
</radialGradient>
<radialGradient id="paint3_radial_91_225" cx="0" cy="0" r="1" gradientUnits="userSpaceOnUse" gradientTransform="translate(-6.14937 40.9561) scale(26.6357 26.6358)">
<stop stop-color="#EBFF00"/>
<stop offset="1" stop-color="#008900"/>
</radialGradient>
<radialGradient id="paint4_radial_91_225" cx="0" cy="0" r="1" gradientUnits="userSpaceOnUse" gradientTransform="translate(13.8054 -2.76998) scale(40.8689 40.8689)">
<stop stop-color="#EBFF00"/>
<stop offset="1" stop-color="#008900"/>
</radialGradient>
<radialGradient id="paint5_radial_91_225" cx="0" cy="0" r="1" gradientUnits="userSpaceOnUse" gradientTransform="translate(22.3859 -4.20145) scale(49.0197 49.0197)">
<stop stop-color="#EBFF00"/>
<stop offset="1" stop-color="#008900"/>
</radialGradient>
<radialGradient id="paint6_radial_91_225" cx="0" cy="0" r="1" gradientUnits="userSpaceOnUse" gradientTransform="translate(41.5847 22.8462) scale(39.7848 39.7848)">
<stop stop-color="#EBFF00"/>
<stop offset="1" stop-color="#008900"/>
</radialGradient>
</defs>
</svg>
