<svg width="75" height="80" viewBox="0 0 75 80" fill="none" xmlns="http://www.w3.org/2000/svg">
<rect y="5" width="75" height="75" rx="20" fill="#EFF8D4"/>
<g clip-path="url(#clip0_92_618)">
<path d="M39.8504 19.8294C40.3387 19.9763 40.9117 19.9576 41.4241 20.0286C51.374 21.4222 59.4909 29.5869 61.1239 39.7604L61.4244 42.0145C61.3759 43.1167 61.4898 44.2761 61.4244 45.3708C60.8332 55.2267 53.7533 64.0103 44.5643 66.6717C27.8835 71.5025 12.2107 56.5655 15.4211 39.1227C17.3303 28.7525 26.3183 20.4795 36.5879 19.8281H39.8516L39.8504 19.8294ZM34.7744 23.1869C29.5941 24.0113 24.8439 27.1248 21.8128 31.4811C24.3121 32.4699 26.8804 33.2944 29.5166 33.8125C30.5851 29.963 32.4398 26.3664 34.7744 23.1857V23.1869ZM54.6256 31.4811C51.5957 27.1298 46.8406 24.0101 41.664 23.1869C43.9949 26.3763 45.8412 29.9667 46.9254 33.8112C49.5628 33.3131 52.1275 32.4662 54.6256 31.4811ZM44.0203 34.2782C42.9918 31.0278 41.4665 27.938 39.4712 25.2069C39.3101 24.9865 38.3046 23.6178 38.175 23.6514C35.6115 26.7649 33.6235 30.3802 32.418 34.2782C34.927 34.6319 37.4578 34.6867 39.991 34.6556L44.0203 34.277V34.2782ZM28.7012 36.703C25.7622 36.2297 22.9734 35.1151 20.1882 34.0989C17.185 40.0879 17.185 47.3011 20.1882 53.2901C22.9673 52.249 25.7695 51.229 28.6928 50.6773C28.5752 49.2912 28.2687 47.9263 28.1585 46.5365C27.8956 43.2138 28.1803 39.9758 28.7012 36.703ZM56.2526 34.0939C53.471 35.1251 50.6701 36.2198 47.7371 36.7042C47.7941 37.7827 48.0715 38.845 48.189 39.921C48.4216 42.0581 48.4507 44.3944 48.2799 46.5377C48.1684 47.9288 47.851 49.2937 47.742 50.6823C50.6519 51.2241 53.4577 52.2092 56.2053 53.3013C59.2958 47.3646 59.2243 40.0667 56.2538 34.0952L56.2526 34.0939ZM44.8344 37.2634C42.019 37.5735 39.2011 37.8288 36.3614 37.7279L31.6027 37.2634C30.8322 41.5201 30.7014 45.9474 31.6887 50.1804C36.0089 49.5827 40.4319 49.5827 44.7484 50.1804C45.2379 48.2937 45.3093 46.3347 45.4729 44.3982L45.3772 41.3183L44.8332 37.2634H44.8344ZM44.0203 53.1108C41.4811 52.7509 38.92 52.7036 36.3565 52.7322L32.418 53.1108C33.6307 57.0063 35.6103 60.6229 38.175 63.7364C38.3094 63.7737 38.324 63.6442 38.3858 63.5807C38.7359 63.2195 39.166 62.6056 39.4737 62.1821C41.4617 59.4498 42.9906 56.355 44.0203 53.1096V53.1108ZM29.5166 53.5753C26.8852 54.1183 24.2769 54.8655 21.8128 55.9515C24.896 60.2593 29.5905 63.3777 34.7744 64.2009C32.4483 61.0102 30.5839 57.4273 29.5166 53.5741V53.5753ZM54.6256 55.9079C52.1275 54.9241 49.5628 54.076 46.9254 53.5778C45.8412 57.4223 43.9949 61.0127 41.664 64.2021C46.8394 63.3814 51.5957 60.253 54.6256 55.9079Z" fill="#5E919A"/>
<path d="M35.2506 2C36.9075 2 38.2506 3.34315 38.2506 5V29.7717C38.2506 30.5862 37.3289 31.059 36.6673 30.5839L31.8647 27.135C31.3547 26.7688 30.7427 26.5718 30.1148 26.5718H9C7.34314 26.5718 6 25.2287 6 23.5718V5C6 3.34315 7.34315 2 9 2H35.2506Z" fill="#4379FF"/>
<path d="M50.9998 71.3157C50.4476 71.3156 50 70.8679 50 70.3157V56.9491C50 56.1346 50.9216 55.6617 51.5832 56.1368L53.6756 57.6391C53.8456 57.7611 54.0496 57.8268 54.2588 57.8268H64C64.5523 57.8268 65 58.2745 65 58.8268V70.3169C65 70.8692 64.5523 71.3169 64 71.3169H58L50.9998 71.3157Z" fill="#FF5061"/>
<path d="M58.5077 60.0586V61.8629H62.0194V63.6672H60.2643C60.2864 64.8007 59.857 65.8716 59.2101 66.7645L60.7837 67.4936L60.1742 69.0843L57.6557 68.059L55.0569 69.0815L54.4751 67.4965L56.0516 66.7645C55.406 65.8702 54.9586 64.8036 54.9974 63.6672H53.2422V61.8629H56.7539V60.0586H58.5091H58.5077ZM58.5077 63.6686H56.7525C56.7165 64.4618 57.0365 65.3518 57.653 65.8317C58.2016 65.2621 58.534 64.4775 58.5077 63.6686Z" fill="white"/>
<path d="M21.3986 7.55555V9.68889H14.1097V12.6222H20.4208V14.6667H14.1097V17.8667H21.3986V20H11.5319V7.55555H21.3986ZM25.7118 20H23.4007V11.0222H25.6229V12.1778H25.7118C26.4229 11.3067 27.6318 10.8089 29.054 10.8089C31.3829 10.8089 32.8229 12.3022 32.8229 14.7378V20H30.5118V15.6444C30.5118 13.8844 29.7118 12.9422 28.254 12.9422C26.7251 12.9422 25.7118 13.9733 25.7118 15.6444V20Z" fill="white"/>
</g>
<defs>
<clipPath id="clip0_92_618">
<rect width="62" height="72" fill="white" transform="translate(3)"/>
</clipPath>
</defs>
</svg>
