<svg width="36" height="36" viewBox="0 0 36 36" fill="none" xmlns="http://www.w3.org/2000/svg">
<rect width="35.9453" height="35.9453" rx="10.2701" fill="#FFE6CE"/>
<path d="M18.9954 21.1361C18.2378 21.4865 18.0362 22.2734 18.3775 23.0193C18.6718 23.662 19.2682 24.785 20.0192 24.8939C20.472 24.9592 20.7037 24.813 21.1063 24.6825C21.2192 24.8287 21.8599 25.0655 21.9115 25.1504C21.9493 25.213 21.9506 25.3944 21.9356 25.4694C21.8984 25.6606 21.4469 25.6626 21.2779 25.6906L10.6772 25.688C9.05308 25.4257 9.12029 24.0091 9.41522 22.7178C9.95811 20.3426 12.0018 18.3916 14.4122 17.9949C15.68 17.7861 17.0783 17.8187 18.3207 18.143L18.3638 18.2311C17.9905 18.9567 18.3181 19.7247 18.9974 20.1038L18.9948 21.1368L18.9954 21.1361Z" fill="#C35300"/>
<path d="M27.8522 19.5407C27.9683 20.2226 27.997 20.9227 27.8522 21.602C28.1203 21.9243 28.9327 21.9896 28.7128 22.5253C28.6476 22.6845 27.9794 23.8179 27.8952 23.8564C27.5135 24.0293 27.1259 23.4688 26.7585 23.4486C26.2829 23.9073 25.6799 24.3119 25.0163 24.4208C24.9589 24.7132 25.1618 25.5079 24.8219 25.6182C24.6437 25.6756 23.5651 25.6639 23.327 25.6417C22.7117 25.5849 23.0503 24.8619 22.9577 24.4235C22.5061 24.338 22.1009 24.1285 21.7264 23.8721C21.6246 23.8029 21.2507 23.4564 21.2187 23.4479C20.9153 23.3703 20.36 24.2492 19.9437 23.7011C19.8426 23.568 19.2442 22.5305 19.2207 22.417C19.1307 21.9778 20.1049 21.8232 20.1303 21.5602C20.1414 21.4408 20.0429 21.219 20.0337 21.0715C20.0011 20.5684 20.0318 20.0568 20.1349 19.5648C19.9059 19.3782 19.2338 19.189 19.2168 18.8667C19.2103 18.7349 19.7349 17.8298 19.8471 17.6628C20.3417 16.9248 20.5571 17.5525 21.1737 17.7678C21.5815 17.42 21.9822 17.1368 22.4761 16.9215C22.5831 16.8752 22.8585 16.8223 22.9152 16.7747C23.0673 16.6481 22.8363 15.8768 23.0588 15.6485C23.2219 15.4808 24.281 15.5017 24.5524 15.5264C25.3145 15.5969 24.9008 16.2227 25.0372 16.7512C25.7067 16.9652 26.2861 17.2961 26.8049 17.7672C27.1487 17.685 27.5977 17.1245 27.922 17.3835C28.0512 17.4872 28.5823 18.3975 28.6691 18.5893C28.9471 19.202 28.2691 19.2771 27.8535 19.5387L27.8522 19.5407ZM23.6826 19.0096C21.7505 19.313 22.0663 22.4326 24.1544 22.216C26.2424 21.9994 25.9246 18.6572 23.6826 19.0096Z" fill="#C35300"/>
<path d="M15.7748 9.78229C18.4749 9.5513 20.3371 12.5033 18.9988 14.8621C17.9776 16.6624 15.519 17.1361 13.9053 15.8232C11.5302 13.8905 12.7269 10.0433 15.7748 9.78229Z" fill="#C35300"/>
</svg>
