<svg width="50" height="50" viewBox="0 0 50 50" fill="none" xmlns="http://www.w3.org/2000/svg">
<g clip-path="url(#clip0_152_149)">
<path d="M31.1797 42.8366C29.2455 43.4192 27.1841 44.0402 26.1914 45.799C25.4906 47.0406 25.0292 48.4774 24.7037 49.7279C24.6049 50.1075 23.9883 50.0825 23.9054 49.6991C23.5735 48.166 22.9464 46.3535 21.68 44.8262C20.681 43.6213 19.1563 43.075 17.6777 42.5452C17.6065 42.5197 17.5353 42.4942 17.4643 42.4686C8.58652 39.2757 2.47445 30.5406 3.0357 20.6406C3.71962 8.57692 14.0536 -0.648218 26.1173 0.0356988C38.181 0.719616 47.4061 11.0536 46.7222 23.1173C46.1871 32.5555 39.7454 40.2562 31.1897 42.8336L31.1797 42.8366Z" fill="#FF4433"/>
<path fill-rule="evenodd" clip-rule="evenodd" d="M15.4023 12.4946V31.2474H19.9169V26.7328H23.0424V31.2474H33.4606V17.7037H28.5988V19.0928H31.7243V20.4819H28.5988V22.2183H31.7243V23.2601H28.5988V27.7747H26.8624V12.4946L25.4733 11.1055H16.7914L15.4023 12.4946ZM20.9587 13.8837H18.1805V16.6619H20.9587V13.8837ZM20.9587 18.051H18.1805V24.3019H20.9587V18.051ZM24.4315 18.051H21.6533V24.3019H24.4315V18.051ZM24.4315 13.8837H21.6533V16.6619H24.4315V13.8837ZM29.9879 24.9965H32.0715V25.691H29.9879V24.9965Z" fill="white"/>
<path d="M28.5988 16.6619V15.62H31.7243L32.7661 16.6619H28.5988Z" fill="white"/>
</g>
<defs>
<clipPath id="clip0_152_149">
<rect width="50" height="50" fill="white"/>
</clipPath>
</defs>
</svg>
