<svg width="30" height="29" viewBox="0 0 30 29" fill="none" xmlns="http://www.w3.org/2000/svg">
<path d="M14.6308 10.8068C15.0615 10.8068 15.4114 10.4659 15.4114 9.98291H15.4383C15.4383 9.49994 15.1153 9.13062 14.6577 9.13062C14.2002 9.13062 13.8503 9.49995 13.8503 9.9545C13.8233 10.4375 14.1732 10.8068 14.6308 10.8068Z" fill="black"/>
<path fill-rule="evenodd" clip-rule="evenodd" d="M7.22935 20.2105V24.0168L7.25626 24.0458H17.3231C17.8614 24.0458 18.3997 23.9605 18.9111 23.8469C22.3026 23.1083 24.8597 19.8696 24.9943 16.2332C25.0481 14.6138 24.7251 13.0797 23.9176 11.7161C22.4372 9.21602 20.3108 7.82395 17.5115 7.6819H15.3312V6.11938C15.3312 5.66483 15.1428 5.43755 14.6045 5.2955V3.44889H14.7929C15.1428 3.36366 15.3581 3.02274 15.3312 2.65342C15.3043 2.28409 15.0351 2 14.6852 2H10.1363C9.81334 2 9.57109 2.25569 9.51725 2.56819C9.4365 3.05115 9.67875 3.36366 10.2171 3.47729V5.2955C9.67875 5.46596 9.49034 5.66483 9.49034 6.14779V13.8468C9.49034 14.3297 9.7595 14.6422 10.244 14.6422H14.6045C15.089 14.6422 15.3581 14.3581 15.3581 13.8468V12.3127H17.3769C17.5922 12.3127 17.8345 12.3695 18.0498 12.4263C19.4764 12.7956 20.3915 13.8468 20.58 15.4093C20.7415 16.7445 20.3377 17.8809 19.3149 18.7332C18.642 19.273 17.8614 19.4718 17.0539 19.4718H7.90226C7.52543 19.5003 7.22935 19.7844 7.22935 20.2105ZM12.4512 10.025C12.4585 11.2408 13.4514 12.2842 14.6314 12.2842C15.8157 12.2842 16.8116 11.2331 16.8116 10.0115C16.8116 8.70464 15.8696 7.71031 14.6314 7.71031C13.3979 7.71031 12.4583 8.7253 12.4512 10.025Z" fill="black"/>
<path d="M5.31956 26.8864C5.34647 26.9148 5.45414 27 5.45414 27L5.48106 26.9716H19.3162C19.5315 26.8295 19.7199 26.6875 19.7737 26.4034C19.8545 25.892 19.5584 25.5227 19.0201 25.5227H5.66947C5.34647 25.5227 5.10423 25.7216 5.02348 26.0625C4.94273 26.375 5.07731 26.7159 5.31956 26.8864Z" fill="black"/>
<path d="M14.5509 16.1487V16.8874C14.5509 17.2567 14.2548 17.5692 13.9049 17.5692H10.8364C10.4865 17.5692 10.2173 17.2851 10.1904 16.8874V16.1203H14.5233L14.5402 16.1375L14.5509 16.1487Z" fill="black"/>
</svg>
