<svg width="29" height="29" viewBox="0 0 29 29" fill="none" xmlns="http://www.w3.org/2000/svg">
<path d="M18.5537 12.6119C20.9843 12.6119 22.9802 10.4712 22.9802 7.81665L23 7.79524C23 5.16214 21.0238 3 18.5932 3C16.1427 3 14.1271 5.14073 14.1271 7.79524C14.1073 10.4283 16.123 12.6119 18.5537 12.6119Z" fill="black"/>
<path d="M10.2666 25.9282C10.4367 26.0918 10.6045 26.253 10.7676 26.4193V26.3979H10.8467C10.8862 26.3337 10.9257 26.2694 10.9652 26.2266C11.116 26.0633 11.2668 25.8976 11.4183 25.7311C11.7235 25.3958 12.0316 25.0572 12.3485 24.7281C12.724 24.3214 12.9611 23.8504 13.0204 23.2938C13.139 22.3091 12.6845 21.3458 11.8743 20.8748C11.0443 20.4038 10.0562 20.5323 9.36454 21.2173C9.25585 21.3244 9.14716 21.4421 9.03848 21.5598C8.92979 21.6776 8.8211 21.7953 8.71241 21.9023C8.37646 22.2235 7.90219 22.2021 7.62552 21.8809C7.3291 21.5598 7.3291 21.0461 7.62552 20.7035C7.68556 20.6385 7.74334 20.5735 7.80039 20.5093C7.91236 20.3832 8.02151 20.2604 8.13932 20.1469C8.17885 20.0827 8.27766 20.0827 8.33694 20.0827C8.92979 20.2326 9.44359 20.0827 9.91786 19.676C11.0344 18.7341 12.1559 17.7868 13.2773 16.8395C14.3988 15.8922 15.5203 14.945 16.6368 14.003C16.6961 13.9602 16.7554 13.9174 16.8146 13.8532C14.878 13.1467 13.6133 11.7339 12.9414 9.65735C12.9019 9.70017 12.8821 9.74298 12.8821 9.74298C11.1036 12.2262 9.30526 14.7309 7.50696 17.2141C7.17101 17.6851 7.0722 18.2203 7.19077 18.8197C7.21053 18.9053 7.19077 19.0124 7.15125 19.0552C7.06232 19.1622 6.96352 19.2692 6.86471 19.3763C6.7659 19.4833 6.66709 19.5904 6.57816 19.6974C5.98532 20.4038 5.82722 21.4528 6.20269 22.3091C6.83506 23.8076 8.63336 24.1501 9.75977 22.9941L10.2933 22.4161C10.6095 22.095 11.0838 22.095 11.3802 22.4161C11.6964 22.7372 11.6964 23.2296 11.3802 23.5935C11.2609 23.7371 11.1328 23.871 11.0076 24.0018C10.9462 24.066 10.8855 24.1295 10.8269 24.1929L9.72025 25.3917C9.90325 25.579 10.0863 25.7549 10.2666 25.9282Z" fill="black"/>
</svg>
