<svg width="75" height="85" viewBox="0 0 75 85" fill="none" xmlns="http://www.w3.org/2000/svg">
<rect y="10" width="75" height="75" rx="20" fill="#FFE2E5"/>
<g clip-path="url(#clip0_179_566)">
<path d="M41.7457 14.7055L43.0645 15.7595L47.0754 13.4071L51.0738 15.7376L52.5131 14.599L51.4669 10.2811L55.0503 7.08297L54.4238 5.50585L49.7097 5.0501C49.5452 4.90601 48.1122 1 48.1122 1H46.1435L44.546 5.0501L39.8319 5.50585L39.2227 6.98744L42.7497 10.1871L41.7457 14.7071V14.7055Z" fill="#FF5061"/>
<path d="M79.7489 53.6639L75.8178 51.7861V57.6043H71.5172V51.7861H71.514L67.4765 53.6623L63.547 51.7861H63.5438V57.6043H59.2447V43.6561L55.2604 44.7712V31.3821L51.9902 31.8629L48.1547 17.8223L45.8838 18.3391L42.2722 31.8629L39.0021 31.2223V44.7712L35.0177 43.6561V57.6043H30.7139V51.7861L26.6748 53.6639L22.7437 51.7861V57.6043H18.5135V51.7861L18.4399 51.8205V51.7861L15.4219 53.2222L14.4963 53.6529L13.0226 52.9685L10.5449 51.7845V51.8189L10.4713 51.7845V57.6028H6.24421V51.7845H6.24108L2.20351 53.6608L-1.72599 51.7845H-1.72912V57.6028H-6.0298V51.7845L-10.0689 53.6623L-14 51.7845V85.9394H42.9895V68.4563C42.9895 67.6591 43.1508 66.8698 43.4703 66.1399C43.522 66.0209 43.5674 65.9238 43.6003 65.8659C45.1524 63.0969 49.2479 63.1564 50.7217 65.9692C50.7389 66.0021 50.7608 66.0475 50.7843 66.1023C51.1022 66.8165 51.2651 67.5886 51.2745 68.3701V85.9394H83.7896V51.7845L79.7505 53.6623L79.7489 53.6639ZM50.0044 43.4243C46.2205 47.0907 40.3693 41.3382 44.1579 37.498C48.0075 33.5951 53.9808 39.5716 50.0044 43.4243Z" fill="#FF5061"/>
</g>
<defs>
<clipPath id="clip0_179_566">
<rect width="75" height="85" rx="20" fill="white"/>
</clipPath>
</defs>
</svg>
