<svg width="41" height="41" viewBox="0 0 41 41" fill="none" xmlns="http://www.w3.org/2000/svg">
<path d="M20.022 33.9726C18.7567 33.2594 17.4633 32.6285 16.2542 31.8605C13.808 30.2696 11.7836 28.2672 10.4059 25.7163C9.478 23.9882 9 22.1504 9 20.2029C9 17.844 9 15.485 9 13.1535C9 12.1386 9.47802 11.5352 10.434 11.206C13.5269 10.1911 16.6198 9.14881 19.7127 8.13392C20.2469 7.96934 20.753 7.94191 21.2591 8.13392C24.3802 9.17624 27.5012 10.2186 30.6223 11.2335C31.3252 11.4529 31.7188 11.9466 32 12.5775V20.7241C32 20.8612 31.9438 21.0258 31.9157 21.163C31.9157 21.3001 31.9157 21.4373 31.9157 21.5744C31.7751 23.0007 31.3252 24.3448 30.6785 25.634C29.4132 28.0478 27.5293 29.9404 25.308 31.5313C23.9865 32.4914 22.5807 33.3417 21.0624 33.9177L20.8093 34H20.022V33.9726ZM19.8533 21.4098C19.1222 20.6967 18.4193 19.9835 17.6883 19.2978C17.1821 18.804 16.5917 18.6394 15.9169 18.804C14.5391 19.1606 14.0892 20.7789 15.1014 21.7938C16.2542 22.9459 17.4352 24.0705 18.588 25.2225C19.6003 26.21 20.7812 26.1277 21.6528 25.0031C22.4963 23.9059 23.3117 22.8362 24.1552 21.739C25.1112 20.5046 26.0672 19.2978 26.9951 18.036C27.8386 16.9114 27.2482 15.4576 25.8704 15.1833C25.1394 15.0462 24.5208 15.3205 24.0709 15.9239C22.665 17.7343 21.2873 19.5446 19.8533 21.4098Z" fill="#0E5A67"/>
</svg>
