<svg width="55" height="55" viewBox="0 0 55 55" fill="none" xmlns="http://www.w3.org/2000/svg">
<g clip-path="url(#clip0_162_543)">
<path d="M24.082 56.2051V13.4861C24.082 12.6483 25.0145 12 26.1659 12C27.3173 12 28.2498 12.5768 28.2498 13.4861V56.2051C28.2498 57.3555 24.0831 57.3555 24.0831 56.2051H24.082Z" fill="#0E5A67"/>
<path d="M47.8113 16.2286L44.3087 12.7712C44.1066 12.5723 43.853 12.5049 43.5909 12.5817L27.0301 17.4242C26.3787 17.6147 25.9219 18.303 25.9219 19.0924V25.7324C25.9219 26.2408 26.1124 26.7218 26.4429 27.0491C26.8007 27.4027 27.2806 27.5343 27.7342 27.4017L44.6812 22.4466C44.9433 22.3698 45.197 22.1551 45.399 21.8372L47.8113 18.0472C48.1807 17.4673 48.1807 16.5927 47.8113 16.2286Z" fill="#0E5A67"/>
<path d="M25.9271 27.9809C25.9271 27.5809 25.725 27.2073 25.3904 26.9884L12.9553 18.8432C12.7627 18.7169 11.6723 17.9876 10.8882 18.898L9.11693 20.823C8.84644 21.1177 8.84644 21.9923 9.11693 22.6416L10.8882 26.8863C11.0366 27.241 11.2229 27.5051 11.4145 27.6304L24.0895 35.9323C24.2831 36.0586 24.5084 36.126 24.7399 36.126C25.3956 36.126 25.9261 35.5945 25.9261 34.9399V27.9819L25.9271 27.9809Z" fill="#0E5A67"/>
</g>
<defs>
<clipPath id="clip0_162_543">
<rect width="54.9961" height="54.9961" fill="white"/>
</clipPath>
</defs>
</svg>
