<svg width="1833" height="460" viewBox="0 0 1833 460" fill="none" xmlns="http://www.w3.org/2000/svg">
<path d="M784.398 36.7998H815.098V25.2998H769.398V96.5998H784.398V36.7998Z" fill="#231F20"/>
<path d="M879.598 89.2C885.598 83.3 888.698 74.6 888.698 63.2V58.8C888.698 47.4 885.698 38.7 879.598 32.8C873.598 26.9 865.998 24 856.498 24C846.998 24 839.398 26.9 833.398 32.8C827.498 38.7 824.398 47.4 824.398 58.8V63.2C824.398 74.6 827.398 83.3 833.398 89.2C839.398 95.1 847.098 98 856.498 98C865.898 98 873.498 95.1 879.598 89.2ZM844.298 81.1C841.298 77.4 839.798 71.9 839.798 64.6V57.4C839.798 50.1 841.298 44.5 844.298 40.9C847.298 37.3 851.398 35.5 856.398 35.5C861.398 35.5 865.498 37.3 868.498 40.9C871.498 44.5 872.998 50 872.998 57.4V64.6C872.998 71.9 871.498 77.4 868.498 81.1C865.498 84.7 861.498 86.5 856.398 86.5C851.298 86.5 847.298 84.8 844.298 81.1Z" fill="#231F20"/>
<path d="M954.5 91.0004C959.6 86.4004 962.3 80.3004 962.6 73.1004V71.8004H947.4V73.1004C947.2 77.2004 945.9 80.4004 943.6 82.9004C941.3 85.4004 938.5 86.6004 933.4 86.6004C928.3 86.6004 924.2 84.8004 921.3 81.1004C918.4 77.4004 916.9 72.0004 916.9 64.9004V57.1004C916.9 49.3004 918.4 43.8004 921.4 40.5004C924.3 37.2004 928.4 35.4004 933.2 35.4004C938 35.4004 941.5 36.5004 943.9 38.9004C946.3 41.3004 947.5 44.5004 947.5 48.8004V50.2004H962.7V49.0004C962.7 41.6004 960.1 35.6004 954.8 30.9004C949.5 26.3004 942.9 23.9004 933.4 23.9004C923.9 23.9004 916.3 26.8004 910.3 32.7004C904.4 38.6004 901.5 47.3004 901.5 58.7004V63.1004C901.5 74.4004 904.5 83.1004 910.3 89.0004C916.1 94.9004 924.3 98.0004 933.4 98.0004C942.5 98.0004 949.5 95.6004 954.5 91.0004Z" fill="#231F20"/>
<path d="M994.9 77.7998C993.2 80.7998 991.4 82.8998 989.6 83.8998C987.8 84.9998 985.4 85.4998 982.7 85.4998C980 85.4998 980.5 85.4998 979.5 85.2998H979.6C978.4 85.0998 977.4 84.8998 976.6 84.6998V97.0998C977.6 97.4998 978.8 97.6998 979.9 97.8998C981.1 98.0998 979.5 98.0998 985 98.0998C990.5 98.0998 995.1 96.5998 998.7 93.6998C1002.4 90.7998 1005.9 85.2998 1009.4 77.3998L1032.3 25.3998H1018.4L1005.2 56.5998C1004.2 58.7998 1003.7 60.3998 1003.4 61.2998C1003.1 62.2998 1002.8 63.2998 1002.2 64.5998H1001.9C1001.5 63.2998 1001 62.1998 1000.8 61.0998C1000.6 60.0998 999.9 58.4998 999 56.3998L984.5 25.2998H969L994.8 77.6998H995L994.9 77.7998Z" fill="#231F20"/>
<path d="M1100.5 25.2998H1049.6L1047.7 62.0998C1047.3 68.9998 1046.6 74.4998 1045.5 78.3998C1044.8 80.7998 1044 83.0998 1042.9 85.2998H1036V110.9H1050V96.6998H1095.3V110.9H1109.3V85.2998H1100.5V25.2998ZM1056.6 85.2998C1057.4 83.2998 1058 81.1998 1058.6 78.8998C1059.5 74.7998 1060.1 69.3998 1060.4 62.6998L1061.7 36.6998H1085.4V85.1998H1056.6V85.2998Z" fill="#231F20"/>
<path d="M1139.3 25.0001C1139.3 24.9001 1112.2 96.5001 1112.2 96.5001H1126.2L1131.9 81.0001H1160.9L1166.6 96.6001H1182.8L1155.2 25.0001H1139.3ZM1136 69.8001L1144.6 46.2001C1145 45.1001 1145.4 44.2001 1145.6 43.1001C1145.9 42.1001 1146 41.1001 1146.2 40.1001H1146.6C1146.8 41.1001 1147 42.1001 1147.2 43.1001C1147.4 44.2001 1147.7 45.3001 1148.2 46.3001L1156.8 69.8001H1136Z" fill="#231F20"/>
<path d="M1207.2 71.5001H1219.4C1227.7 71.5001 1234.2 69.6001 1238.6 65.5001C1243 61.4001 1245.3 55.7001 1245.3 48.4001C1245.3 41.1001 1243.1 35.3001 1238.6 31.4001C1234.1 27.5001 1227.7 25.5001 1219.4 25.5001H1192.2C1192.2 25.4001 1192.2 96.7001 1192.2 96.7001H1207.2V71.7001V71.5001ZM1207.2 36.5001H1218C1222.6 36.5001 1225.8 37.5001 1227.6 39.6001C1229.4 41.8001 1230.3 44.6001 1230.3 48.3001C1230.3 52.0001 1229.4 55.0001 1227.6 57.1001C1225.8 59.3001 1222.6 60.3001 1218 60.3001C1218 60.2001 1207.2 60.2001 1207.2 60.2001V36.4001V36.5001Z" fill="#231F20"/>
<path d="M1287.7 98.0004C1296.8 98.0004 1303.8 95.6004 1308.8 91.0004C1313.8 86.4004 1316.6 80.3004 1316.9 73.1004V71.8004H1301.7V73.1004C1301.5 77.2004 1300.2 80.4004 1297.9 82.9004C1295.6 85.4004 1292.8 86.6004 1287.7 86.6004C1282.6 86.6004 1278.5 84.8004 1275.6 81.1004C1272.7 77.4004 1271.2 72.0004 1271.2 64.9004V57.1004C1271.2 49.3004 1272.7 43.8004 1275.7 40.5004C1278.6 37.2004 1282.7 35.4004 1287.5 35.4004C1292.3 35.4004 1295.8 36.5004 1298.2 38.9004C1300.6 41.3004 1301.8 44.5004 1301.8 48.8004V50.2004H1317V49.0004C1317 41.6004 1314.4 35.5004 1309.1 30.9004C1303.8 26.3004 1297.2 23.9004 1287.7 23.9004C1278.2 23.9004 1270.6 26.8004 1264.6 32.7004C1258.6 38.6004 1255.8 47.3004 1255.8 58.7004V63.1004C1255.8 74.4004 1258.8 83.1004 1264.6 89.0004C1270.4 94.9004 1278.6 98.0004 1287.7 98.0004Z" fill="#231F20"/>
<path d="M1345.3 96.5998H1360.3V36.7998H1381.5V25.2998H1324.1V36.7998H1345.3V96.5998Z" fill="#231F20"/>
<path d="M1393.5 96.7004H1421.5C1429.3 96.7004 1435.5 94.9004 1440.3 91.3004C1445 87.7004 1447.4 80.8004 1447.4 76.2004C1447.4 71.6004 1446.3 67.8004 1444.2 65.0004C1442 62.1004 1439.3 60.3004 1436.1 59.3004V59.1004C1438.8 58.1004 1441 56.4004 1442.8 53.9004C1444.6 51.3004 1445.5 50.6004 1445.5 44.2004C1445.5 37.8004 1443.2 33.1004 1438.7 30.0004C1434.2 26.9004 1427.9 25.4004 1420 25.4004H1393.4H1393.5V96.8004V96.7004ZM1408.3 36.1004H1419.7C1423.6 36.1004 1426.4 36.9004 1428 38.5004C1429.6 40.1004 1430.5 42.3004 1430.5 45.3004C1430.5 48.3004 1429.7 50.6004 1428 52.2004C1426.3 53.8004 1423.5 54.7004 1419.7 54.7004H1408.3V36.1004ZM1408.3 64.6004H1421.1C1425 64.6004 1427.8 65.6004 1429.6 67.5004C1431.4 69.4004 1432.3 71.9004 1432.3 75.3004C1432.3 78.7004 1431.4 81.2004 1429.6 83.2004C1427.8 85.1004 1425 86.1004 1421.1 86.1004C1421.1 86.0004 1408.3 86.0004 1408.3 86.0004V64.6004Z" fill="#231F20"/>
<path d="M1511.1 85.2998H1477.4V65.5998H1506.1V54.3998H1477.4V36.7998H1510.5V25.2998H1462.5V96.5998H1511.1V85.2998Z" fill="#231F20"/>
<path d="M1568.8 54.0998H1540.1V25.2998H1525.1V96.5998H1540.1V65.6998H1568.8V96.5998H1583.8V25.2998H1568.8V54.0998Z" fill="#231F20"/>
<path d="M1646 54.0998H1617.3V25.2998H1602.3V96.5998H1617.3V65.6998H1646V96.5998H1661V25.2998H1646V54.0998Z" fill="#231F20"/>
<path d="M1706.6 51.0998H1694.5V25.2998H1679.4V96.6998H1706.6C1715.7 96.6998 1722.2 94.6998 1726.3 90.3998C1730.4 86.1998 1732.4 80.5998 1732.4 73.7998C1732.4 66.9998 1730.4 61.4998 1726.3 57.2998C1722.1 53.0998 1715.6 50.9998 1706.6 50.9998V51.0998ZM1714.8 82.2998C1713 84.2998 1709.8 85.2998 1705.5 85.2998H1694.6V62.2998H1705.6C1709.8 62.2998 1712.9 63.3998 1714.8 65.3998C1716.6 67.3998 1717.6 69.9998 1717.6 73.6998C1717.6 77.3998 1716.6 80.1998 1714.8 82.1998V82.2998Z" fill="#231F20"/>
<path d="M1754.7 25.2998H1739.6V96.5998H1754.7V25.2998Z" fill="#231F20"/>
<path d="M1816.2 25.2998L1791.6 69.6998C1791.1 70.7998 1790.5 71.9998 1789.9 73.1998C1789.3 74.3998 1788.8 75.4998 1788.4 76.2998H1788V25.2998H1773V96.5998H1789.3L1813.9 52.1998C1814.5 50.9998 1815.1 49.8998 1815.6 48.8998C1816.1 47.8998 1816.7 46.6998 1817.2 45.6998H1817.6V96.6998H1832.5V25.2998H1816.2Z" fill="#231F20"/>
<path d="M1791.6 15.2C1795.2 17.2 1799.1 18.3 1803.7 18.3C1808.3 18.3 1812.2 17.2 1815.7 15.2C1819.2 13.2 1821.8 9.6 1823.7 4.7L1815 0C1814 3.6 1812.6 6 1810.8 7.4C1809.1 8.8 1806.7 9.6 1803.8 9.6C1800.9 9.6 1798.4 8.8 1796.6 7.4C1794.7 6 1793.3 3.5 1792.3 0.1L1783.7 4.8C1785.5 9.7 1788.2 13.1 1791.8 15.2H1791.6Z" fill="#231F20"/>
<path d="M798.399 174.1C797.399 176.3 796.899 177.9 796.599 178.8C796.299 179.8 795.999 180.8 795.399 182.1H795.099C794.699 180.8 794.199 179.7 793.999 178.6C793.799 177.6 793.099 176 792.199 173.9L777.699 142.8H762.199L787.999 195.2H788.199C786.499 198.2 784.699 200.3 782.899 201.3C781.099 202.4 778.699 202.9 775.999 202.9C773.299 202.9 773.799 202.9 772.799 202.7H772.899C771.699 202.5 770.699 202.3 769.899 202.1V214.5C770.899 214.9 772.099 215.1 773.199 215.3C774.399 215.5 772.799 215.5 778.299 215.5C783.799 215.5 788.399 214 791.999 211.1C795.699 208.2 799.199 202.7 802.699 194.8L825.599 142.8H811.699L798.499 174L798.399 174.1Z" fill="#231F20"/>
<path d="M880.098 171.7H851.398V142.9H836.398V214.2H851.398V183.2H880.098V214.2H895.098V142.9H880.098V171.7Z" fill="#231F20"/>
<path d="M957.998 170.7V214.2H972.898V142.9H956.598L931.998 187.3C931.498 188.4 930.898 189.6 930.298 190.8C929.698 192 929.198 193.1 928.798 193.9H928.398V142.9H913.398V214.2H929.698L954.298 169.8C954.898 168.6 955.498 167.5 955.998 166.5C956.498 165.4 957.098 164.3 957.598 163.3H957.998V170.8V170.7Z" fill="#231F20"/>
<path d="M1034.2 176.9V176.7C1036.9 175.7 1039.1 174 1040.9 171.5C1042.7 168.9 1043.6 168.2 1043.6 161.8C1043.6 155.4 1041.3 150.7 1036.8 147.6C1032.3 144.5 1026 143 1018.1 143H991.5H991.6V214.4H1019.6C1027.4 214.4 1033.6 212.6 1038.4 209C1043.1 205.4 1045.5 198.5 1045.5 193.9C1045.5 189.3 1044.4 185.5 1042.3 182.7C1040.1 179.8 1037.4 178 1034.2 177V176.9ZM1006.4 153.7H1017.8C1021.7 153.7 1024.5 154.5 1026.1 156.1C1027.7 157.7 1028.6 159.9 1028.6 162.9C1028.6 165.9 1027.8 168.2 1026.1 169.8C1024.4 171.4 1021.6 172.3 1017.8 172.3H1006.4V153.7ZM1027.7 200.7C1025.9 202.6 1023.1 203.6 1019.2 203.6C1019.2 203.5 1006.4 203.5 1006.4 203.5V182.1H1019.2C1023.1 182.1 1025.9 183.1 1027.7 185C1029.5 186.9 1030.4 189.4 1030.4 192.8C1030.4 196.2 1029.5 198.7 1027.7 200.7Z" fill="#231F20"/>
<path d="M1075.4 183.1H1104.1V171.9H1075.4V154.3H1108.6V142.9H1060.6V214.2H1109.1V202.9H1075.4V183.1Z" fill="#231F20"/>
<path d="M1138.2 189.1H1150.4C1158.7 189.1 1165.2 187.2 1169.6 183.1C1174 179 1176.3 173.3 1176.3 166C1176.3 158.7 1174.1 152.9 1169.6 149C1165.1 145.1 1158.7 143.1 1150.4 143.1H1123.2C1123.2 143 1123.2 214.3 1123.2 214.3H1138.2V189.3V189.1ZM1138.2 154H1149C1153.6 154 1156.8 155 1158.6 157.1C1160.4 159.3 1161.3 162.1 1161.3 165.8C1161.3 169.5 1160.4 172.5 1158.6 174.6C1156.8 176.8 1153.6 177.8 1149 177.8C1149 177.7 1138.2 177.7 1138.2 177.7V153.9V154Z" fill="#231F20"/>
<path d="M1240 148.5C1234.7 143.9 1228.1 141.5 1218.6 141.5C1209.1 141.5 1201.5 144.4 1195.5 150.3C1189.6 156.2 1186.7 164.9 1186.7 176.3V180.7C1186.7 192 1189.7 200.7 1195.5 206.6C1201.3 212.5 1209.5 215.6 1218.6 215.6C1227.7 215.6 1234.7 213.2 1239.7 208.6C1244.8 204 1247.5 197.9 1247.8 190.7V189.4H1232.6V190.7C1232.4 194.8 1231.1 198 1228.8 200.5C1226.5 203 1223.7 204.2 1218.6 204.2C1213.5 204.2 1209.4 202.4 1206.5 198.7C1203.6 195 1202.1 189.6 1202.1 182.5V174.7C1202.1 166.9 1203.6 161.4 1206.6 158.1C1209.5 154.8 1213.6 153 1218.4 153C1223.2 153 1226.7 154.1 1229.1 156.5C1231.5 158.9 1232.7 162.1 1232.7 166.4V167.8H1247.9V166.6C1247.9 159.2 1245.3 153.1 1240 148.5Z" fill="#231F20"/>
<path d="M1279.8 187.3C1279.3 188.4 1278.7 189.6 1278.1 190.8C1277.5 192 1277 193.1 1276.6 193.9H1276.2V142.9H1261.2V214.2H1277.5L1302.1 169.8C1302.7 168.6 1303.3 167.5 1303.8 166.5C1304.3 165.5 1304.9 164.3 1305.4 163.3H1305.8V214.3H1320.7V143H1304.4L1279.8 187.4V187.3Z" fill="#231F20"/>
<path d="M1354.1 214.2H1369.1V154.3H1390.4V142.9H1332.9V154.3H1354.1V214.2Z" fill="#231F20"/>
<path d="M1450.9 202.9H1417.2V183.1H1445.9V171.9H1417.2V154.3H1450.4V142.9H1402.4V214.2H1450.9V202.9Z" fill="#231F20"/>
<path d="M1458.4 154.3H1479.7V214.2H1494.7V154.3H1515.9V142.9H1458.4V154.3Z" fill="#231F20"/>
<path d="M798.399 291.6C797.399 293.8 796.899 295.4 796.599 296.3C796.299 297.3 795.999 298.3 795.399 299.6H795.099C794.699 298.3 794.199 297.2 793.999 296.1C793.799 295.1 793.099 293.5 792.199 291.4L777.699 260.3H762.199L787.999 312.7H788.199C786.499 315.7 784.699 317.8 782.899 318.8C781.099 319.9 778.699 320.4 775.999 320.4C773.299 320.4 773.799 320.4 772.799 320.2H772.899C771.699 320 770.699 319.8 769.899 319.6V332C770.899 332.4 772.099 332.6 773.199 332.8C774.399 333 772.799 333 778.299 333C783.799 333 788.399 331.5 791.999 328.6C795.699 325.7 799.199 320.2 802.699 312.3L825.599 260.3H811.699L798.499 291.5L798.399 291.6Z" fill="#231F20"/>
<path d="M836.5 331.8H851.5V271.9H879.4V331.8H894.3V260.5H836.5V331.8Z" fill="#231F20"/>
<path d="M940.001 260.5H912.801V331.7H927.801V306.7H940.001C948.301 306.7 954.801 304.8 959.201 300.7C963.601 296.6 965.901 290.9 965.901 283.6C965.901 276.3 963.601 270.5 959.201 266.6C954.701 262.6 948.301 260.7 940.001 260.7V260.5ZM948.201 292.3C946.401 294.5 943.201 295.5 938.601 295.5C938.601 295.4 927.801 295.4 927.801 295.4V271.6H938.601C943.201 271.6 946.401 272.6 948.201 274.7C950.001 276.9 950.901 279.7 950.901 283.4C950.901 287.1 950.001 290.1 948.201 292.2V292.3Z" fill="#231F20"/>
<path d="M997.198 260.2C997.198 260.1 970.098 331.7 970.098 331.7H984.098L989.798 316.2H1018.8L1024.5 331.8H1040.7L1013.1 260.2H997.198ZM993.898 304.9L1002.5 281.3C1002.9 280.2 1003.3 279.3 1003.5 278.2C1003.8 277.2 1003.9 276.2 1004.1 275.2H1004.5C1004.7 276.2 1004.9 277.2 1005.1 278.2C1005.3 279.3 1005.6 280.4 1006.1 281.4L1014.7 304.9H993.898Z" fill="#231F20"/>
<path d="M1092.9 294.5V294.3C1095.6 293.3 1097.8 291.6 1099.6 289.1C1101.4 286.5 1102.3 285.8 1102.3 279.4C1102.3 273 1100 268.3 1095.5 265.2C1091 262.1 1084.7 260.6 1076.8 260.6H1050.2H1050.3V332H1078.3C1086.1 332 1092.3 330.2 1097.1 326.6C1101.8 323 1104.2 316.1 1104.2 311.5C1104.2 306.9 1103.1 303.2 1101 300.3C1098.8 297.4 1096.1 295.6 1092.9 294.6V294.5ZM1065.1 271.3H1076.5C1080.4 271.3 1083.1 272.1 1084.8 273.7C1086.4 275.3 1087.3 277.5 1087.3 280.5C1087.3 283.5 1086.5 285.8 1084.8 287.4C1083.1 289 1080.3 289.9 1076.5 289.9H1065.1V271.3ZM1086.4 318.3C1084.6 320.2 1081.8 321.2 1077.9 321.2C1077.9 321.1 1065.1 321.1 1065.1 321.1V299.7H1077.9C1081.8 299.7 1084.6 300.7 1086.4 302.6C1088.2 304.5 1089.1 307 1089.1 310.4C1089.1 313.8 1088.2 316.3 1086.4 318.3Z" fill="#231F20"/>
<path d="M1127.6 260.7L1125.2 303.3C1124.9 309.8 1124 314.3 1122.7 316.9C1121.4 319.5 1119.2 320.8 1116 320.8C1112.8 320.8 1114.7 320.7 1114.1 320.7C1113.5 320.6 1112.8 320.4 1112.1 320.2V332.6C1113.3 332.9 1114.4 333.2 1115.4 333.2C1116.5 333.3 1111.3 333.3 1118.4 333.3C1125.5 333.3 1130.5 330.9 1133.3 326.2C1136 321.5 1137.6 314.6 1138.2 305.5L1140 272H1163V331.9H1178V260.6V260.8H1127.6V260.7Z" fill="#231F20"/>
<path d="M1211.4 300.7H1240.1V289.5H1211.4V271.9H1244.6V260.5H1196.6V331.8H1245.1V320.4H1211.4V300.7Z" fill="#231F20"/>
<path d="M1302.9 289.3H1274.2V260.5H1259.2V331.8H1274.2V300.8H1302.9V331.8H1317.9V260.5H1302.9V289.3Z" fill="#231F20"/>
<path d="M1354.8 304.9C1354.3 306 1353.7 307.2 1353.1 308.4C1352.5 309.6 1352 310.7 1351.6 311.5H1351.2V260.5H1336.2V331.8H1352.5L1377.1 287.4C1377.7 286.2 1378.3 285.1 1378.8 284.1C1379.3 283 1379.9 281.9 1380.4 280.9H1380.8V331.9H1395.7V260.6H1379.4L1354.8 305V304.9Z" fill="#231F20"/>
<path d="M1419.4 266.5C1414.9 270.6 1412.6 277.3 1412.6 283C1412.6 288.7 1414.1 293.6 1417.2 297.5C1419.3 300.1 1422 302 1425.3 303.2L1409.7 331.8H1425.7L1439.4 305.9H1450.2V331.8H1465.3V260.5H1438.7C1430.3 260.5 1423.9 262.5 1419.4 266.5ZM1450.2 271.6V294.8H1439.8C1435.2 294.8 1432 293.6 1430.2 291.5C1428.4 289.3 1427.5 286.5 1427.5 283.1C1427.5 279.7 1428.4 277 1430.2 274.8C1432 272.8 1435.2 271.7 1439.8 271.7H1450.2V271.6Z" fill="#231F20"/>
<path d="M765.102 424.7C765.102 417.1 767.002 411.3 771.002 407.3C775.002 403.3 780.102 401.4 786.302 401.4C792.502 401.4 797.602 403.3 801.702 407.3C805.702 411.3 807.702 417 807.702 424.7V427.6C807.702 435.2 805.702 441 801.702 445C797.702 449 792.502 450.9 786.302 450.9C780.102 450.9 774.902 449 771.002 445C767.002 441 765.102 435.3 765.102 427.6V424.7ZM778.402 439.6C780.302 442 783.002 443.3 786.502 443.3C790.002 443.3 792.502 442.1 794.602 439.6C796.702 437.1 797.602 433.6 797.602 428.6V423.9C797.602 418.9 796.602 415.3 794.602 412.9C792.602 410.5 789.902 409.3 786.502 409.3C783.102 409.3 780.502 410.5 778.402 412.9C776.502 415.3 775.402 418.9 775.402 423.9V428.6C775.402 433.6 776.402 437.2 778.402 439.6Z" fill="#707071"/>
<path d="M814.301 424.7C814.301 417 816.201 411.3 820.201 407.3C824.101 403.3 829.301 401.4 835.501 401.4C841.701 401.4 846.201 403 849.701 406.1C853.201 409.2 855.001 413.2 855.001 418.2V419H844.901V418.1C844.901 415.3 844.101 413 842.501 411.5C840.901 410 838.501 409.2 835.401 409.2C832.301 409.2 829.601 410.3 827.501 412.5C825.601 414.8 824.501 418.4 824.501 423.6V428.8C824.501 433.5 825.501 437.2 827.401 439.6C829.301 442.1 832.001 443.3 835.501 443.3C839.001 443.3 840.801 442.4 842.301 440.8C843.801 439.2 844.701 437 844.801 434.3V433.4H854.901V434.3C854.701 439.2 852.901 443.1 849.501 446.3C846.101 449.5 841.401 451 835.501 451C829.601 451 824.001 449.1 820.101 445.1C816.201 441.1 814.301 435.4 814.301 427.8V424.6V424.7Z" fill="#707071"/>
<path d="M861.902 402.4H871.902V421.6H891.002V402.4H901.002V450H891.002V429.3H871.902V450H861.902V402.4Z" fill="#707071"/>
<path d="M909.301 424.7C909.301 417.1 911.201 411.3 915.201 407.3C919.201 403.3 924.301 401.4 930.501 401.4C936.701 401.4 941.801 403.3 945.901 407.3C949.901 411.3 951.901 417 951.901 424.7V427.6C951.901 435.2 949.901 441 945.901 445C941.901 449 936.701 450.9 930.501 450.9C924.301 450.9 919.101 449 915.201 445C911.201 441 909.301 435.3 909.301 427.6V424.7ZM922.601 439.6C924.501 442 927.201 443.3 930.701 443.3C934.201 443.3 936.701 442.1 938.801 439.6C940.901 437.1 941.801 433.6 941.801 428.6V423.9C941.801 418.9 940.801 415.3 938.801 412.9C936.801 410.5 934.101 409.3 930.701 409.3C927.301 409.3 924.701 410.5 922.601 412.9C920.701 415.3 919.601 418.9 919.601 423.9V428.6C919.601 433.6 920.601 437.2 922.601 439.6Z" fill="#707071"/>
<path d="M960.402 402.401H978.102C983.402 402.401 987.502 403.401 990.502 405.401C993.502 407.401 995.002 410.601 995.002 414.901C995.002 419.201 994.402 419.601 993.202 421.401C992.002 423.201 990.502 424.201 988.802 424.901C991.002 425.701 992.802 426.901 994.202 428.801C995.602 430.701 996.402 433.201 996.402 436.201C996.402 439.201 994.802 443.901 991.702 446.301C988.602 448.701 984.402 449.901 979.202 449.901H960.502V402.301L960.402 402.401ZM977.802 421.901C980.402 421.901 982.202 421.401 983.302 420.301C984.402 419.201 985.002 417.701 985.002 415.701C985.002 413.701 984.502 412.201 983.302 411.201C982.202 410.101 980.402 409.601 977.802 409.601H970.102V422.001H977.802V421.901ZM978.802 442.901C981.402 442.901 983.302 442.301 984.502 441.001C985.702 439.701 986.302 438.001 986.302 435.801C986.302 433.601 985.702 431.901 984.502 430.601C983.302 429.301 981.402 428.701 978.802 428.701H970.302V442.901H978.802Z" fill="#707071"/>
<path d="M1016.2 402.2H1026.8L1045.1 450H1034.3L1022 416.3C1021.8 415.5 1021.6 414.9 1021.4 414.1C1021.3 413.5 1021.1 412.8 1021 412.1H1020.7C1020.6 412.7 1020.5 413.5 1020.3 414.1C1020.1 414.7 1020 415.5 1019.7 416.3L1007.4 450H998L1016 402.2H1016.3H1016.2ZM1010.8 432.1H1031.8L1034.1 439.5H1008.4L1010.7 432.1H1010.8Z" fill="#707071"/>
<path d="M1049.3 402.4H1059.3V421.6H1078.4V402.4H1088.4V450H1078.4V429.3H1059.3V450H1049.3V402.4Z" fill="#707071"/>
<path d="M1114.9 402.401H1132.6C1137.9 402.401 1142 403.401 1145 405.401C1148 407.401 1149.5 410.601 1149.5 414.901C1149.5 419.201 1148.9 419.601 1147.7 421.401C1146.5 423.201 1145 424.201 1143.3 424.901C1145.5 425.701 1147.3 426.901 1148.7 428.801C1150.1 430.701 1150.9 433.201 1150.9 436.201C1150.9 439.201 1149.3 443.901 1146.2 446.301C1143.1 448.701 1138.9 449.901 1133.7 449.901H1115V402.301L1114.9 402.401ZM1132.5 421.901C1135.1 421.901 1136.9 421.401 1138 420.301C1139.1 419.201 1139.7 417.701 1139.7 415.701C1139.7 413.701 1139.2 412.201 1138 411.201C1136.9 410.101 1135.1 409.601 1132.5 409.601H1124.8V422.001H1132.5V421.901ZM1133.5 442.901C1136.1 442.901 1138 442.301 1139.2 441.001C1140.4 439.701 1141 438.001 1141 435.801C1141 433.601 1140.4 431.901 1139.2 430.601C1138 429.301 1136.1 428.701 1133.5 428.701H1125V442.901H1133.5Z" fill="#707071"/>
<path d="M1186.3 412.101L1175.1 416.401V408.101L1191.4 401.801H1196.5V449.901H1186.4V412.001L1186.3 412.101Z" fill="#707071"/>
<path d="M1213.6 406.101C1216.5 403.101 1220.7 401.601 1226 401.601C1231.3 401.601 1235.3 403.201 1238.6 406.501C1241.9 409.701 1243.7 415.001 1243.7 422.501V423.701C1243.7 431.701 1241.3 438.001 1236.6 442.801C1231.9 447.501 1224.7 450.001 1215.4 450.201H1214.5V442.401H1215.4C1221.3 442.401 1226 440.901 1229.3 438.001C1232.6 435.101 1234.3 430.301 1234.3 423.801L1233.8 422.201C1233.8 417.501 1233.2 414.101 1231.9 412.101C1230.6 410.201 1228.7 409.101 1226.2 409.101C1223.7 409.101 1222.2 409.901 1221.1 411.401C1220 412.901 1219.5 415.101 1219.5 418.001C1219.5 420.901 1220 423.001 1221.1 424.501C1222.2 426.001 1223.9 426.901 1226.3 426.901C1228.7 426.901 1230.4 426.101 1231.8 424.501C1233.2 422.901 1234 420.801 1234 418.401H1236.9C1236.9 422.601 1235.8 426.301 1233.8 429.401C1231.8 432.601 1228.4 434.101 1224 434.101C1219.6 434.101 1215.8 432.601 1213.2 429.701C1210.6 426.801 1209.3 422.901 1209.3 418.201C1209.3 413.501 1210.8 409.401 1213.7 406.301H1213.8L1213.6 406.101Z" fill="#707071"/>
<path d="M1261.8 412.101L1250.6 416.401V408.101L1266.9 401.801H1272V449.901H1261.9V412.001L1261.8 412.101Z" fill="#707071"/>
<path d="M1289.1 406.101C1292 403.101 1296.2 401.601 1301.5 401.601C1306.8 401.601 1310.8 403.201 1314.1 406.501C1317.4 409.801 1319.2 415.001 1319.2 422.501V423.701C1319.2 431.701 1316.8 438.001 1312.1 442.801C1307.4 447.501 1300.2 450.001 1290.9 450.201H1290V442.401H1290.9C1296.8 442.401 1301.5 440.901 1304.8 438.001C1308.1 435.101 1309.8 430.301 1309.8 423.801L1309.3 422.201C1309.3 417.501 1308.7 414.101 1307.4 412.101C1306.1 410.201 1304.2 409.101 1301.7 409.101C1299.2 409.101 1297.7 409.901 1296.6 411.401C1295.5 412.901 1295 415.101 1295 418.001C1295 420.901 1295.5 423.001 1296.6 424.501C1297.7 426.001 1299.4 426.901 1301.8 426.901C1304.2 426.901 1305.9 426.101 1307.3 424.501C1308.7 422.901 1309.5 420.801 1309.5 418.401H1312.4C1312.4 422.601 1311.3 426.301 1309.3 429.401C1307.3 432.601 1303.9 434.101 1299.5 434.101C1295.1 434.101 1291.3 432.601 1288.7 429.701C1286.1 426.801 1284.8 422.901 1284.8 418.201C1284.8 413.501 1286.3 409.401 1289.2 406.301H1289.3L1289.1 406.101Z" fill="#707071"/>
<path d="M1342.5 402.4H1372.9V410.1H1352.5V450H1342.5V402.4Z" fill="#707071"/>
<path d="M1376.9 424.7C1376.9 417.1 1378.8 411.3 1382.8 407.3C1386.8 403.3 1391.9 401.4 1398.1 401.4C1404.3 401.4 1409.4 403.3 1413.5 407.3C1417.5 411.3 1419.5 417 1419.5 424.7V427.6C1419.5 435.2 1417.5 441 1413.5 445C1409.5 449 1404.3 450.9 1398.1 450.9C1391.9 450.9 1386.7 449 1382.8 445C1378.8 441 1376.9 435.3 1376.9 427.6V424.7ZM1390.2 439.6C1392.1 442 1394.8 443.3 1398.3 443.3C1401.8 443.3 1404.3 442.1 1406.4 439.6C1408.5 437.1 1409.4 433.6 1409.4 428.6V423.9C1409.4 418.9 1408.4 415.3 1406.4 412.9C1404.4 410.5 1401.7 409.3 1398.3 409.3C1394.9 409.3 1392.3 410.5 1390.2 412.9C1388.3 415.3 1387.2 418.9 1387.2 423.9V428.6C1387.2 433.6 1388.2 437.2 1390.2 439.6Z" fill="#707071"/>
<path d="M1462.6 450H1432.5V459.5H1423.1V442.5H1472V459.5H1462.6V450ZM1466.1 402.4V450H1456.1V410.1H1440.2L1439.3 427.4C1439.1 431.9 1438.7 435.5 1438 438.2C1437.3 440.9 1436.5 443.3 1435.3 445.3H1426C1427.4 442.9 1428.5 440.4 1429.2 437.9C1429.9 435.4 1430.4 431.6 1430.6 427L1431.9 402.5H1466L1466.1 402.4Z" fill="#707071"/>
<path d="M1479.9 442.4C1480.7 442.5 1481.4 442.6 1482.1 442.6C1483.9 442.6 1485.4 442.3 1486.6 441.5C1487.8 440.7 1489 439.5 1490.1 437.4H1489.9L1472.6 402.5H1483L1492.6 423.2C1493.2 424.6 1493.7 425.7 1493.9 426.4C1494 427 1494.3 427.9 1494.7 428.7H1494.9C1495.2 427.8 1495.4 427.1 1495.7 426.4C1496 425.7 1496.2 424.7 1496.9 423.3L1505.6 402.5H1514.9L1499.7 437.2C1497.3 442.5 1495.1 446 1492.6 448.1C1490.2 450 1487.2 451 1483.5 451C1479.8 451 1480.9 451 1480.2 450.9C1479.4 450.9 1478.7 450.7 1477.9 450.4V442.1C1478.4 442.3 1479.2 442.4 1479.8 442.5H1480L1479.9 442.4Z" fill="#707071"/>
<path d="M5.50031 232.6C-2.5997 224.5 0.400305 213.3 7.80031 206.1C54.4003 159.1 95.6003 103.9 142 57.0004C164 34.8004 180.3 28.5004 211.6 28.4004C307.5 28.2004 401.4 28.4004 497.1 28.4004C519.5 28.4004 533.2 32.4004 545.9 42.4004C564.2 57.0004 573.9 79.8004 571.2 106.4C569.5 123.4 559.6 134.4 549.1 146.7C522.9 177.7 493.8 206.5 466.9 236.9C364.3 238.8 261.5 237.9 158.9 239.3C142.6 238.3 132.6 224 143.3 209.7C154 195.4 184.8 161.6 202 144.6C206.4 140.2 209.9 135.5 216.5 134.4C223.1 133.3 236 131.3 236 131.3C236 131.3 423.8 134 501.7 131.3C546.7 131.3 541.6 63.8004 499.7 63.8004C395.5 61.5004 310.5 64.4004 209.6 62.8004C189.1 64.0004 178.4 68.5004 163.8 82.8004L29.7003 232.2C22.9003 238.5 12.1003 239.2 5.4003 232.5H5.50031V232.6Z" fill="#1E3666"/>
<path d="M111.399 218.7L105.699 213.7L185.099 121.1C192.099 112.9 202.399 108.2 213.299 108.2H501.699V115.8H213.199C204.599 115.8 196.399 119.6 190.799 126.2L111.399 218.8V218.7Z" fill="#1E3666"/>
<path d="M63.4008 234.5L57.8008 229.4L179.701 94.7004C186.701 87.0004 196.601 82.5004 207.001 82.5004L501.701 80.9004V88.5004L207.101 90.1004C198.801 90.1004 190.901 93.7004 185.401 99.8004L63.5008 234.5H63.4008Z" fill="#1E3666"/>
<path d="M576.099 251.2C584.199 259.3 581.199 270.5 573.799 277.7C527.199 324.7 485.999 379.9 439.599 426.8C417.599 449 401.299 454.6 369.999 455.4C283.899 457.4 176.199 455.4 80.4991 455.4C66.5 455.4 48.4991 451.4 35.6991 441.4C17.3991 426.8 7.69908 404 10.3991 377.4C12.0991 360.4 21.9991 349.4 32.4991 337.1C58.6991 306.1 87.7991 277.3 114.699 246.9C217.299 245 320.099 245.9 422.699 244.5C438.999 245.5 448.999 259.8 438.299 274.1C427.599 288.3 396.799 322.2 379.599 339.2C375.199 343.6 371.699 348.3 365.099 349.4C358.499 350.5 345.599 352.5 345.599 352.5C345.599 352.5 157.799 349.8 79.8991 352.5C34.8991 352.5 39.9991 420 81.8991 420C186.099 422.3 271.099 419.4 371.999 421C392.499 419.8 403.199 415.3 417.799 401L551.499 251.5C558.299 245.2 569.099 244.5 575.799 251.2H575.699H576.099Z" fill="#E3203B"/>
<path d="M368.4 375.7H80V368.1H368.4C377 368.1 385.2 364.3 390.8 357.7L470.2 265.1L475.9 270.1L396.5 362.7C389.5 370.9 379.2 375.6 368.3 375.6L368.4 375.7Z" fill="#E3203B"/>
<path d="M79.9984 402.8V395.2L374.598 393.6C382.898 393.6 390.798 390 396.298 383.9L518.198 249.2L523.798 254.3L401.898 389C394.898 396.7 384.998 401.2 374.598 401.2L79.8984 402.8H79.9984Z" fill="#E3203B"/>
</svg>
