<svg width="75" height="84" viewBox="0 0 75 84" fill="none" xmlns="http://www.w3.org/2000/svg">
<rect y="9" width="75" height="75" rx="20" fill="#C0D2FF"/>
<g clip-path="url(#clip0_92_617)">
<path d="M61.7532 53.4004H40.361C38.1404 53.4806 36.6516 55.2702 36.5312 57.4081C37.6341 69.2785 37.589 81.3493 38.7118 93.2071C38.9875 96.102 39.3008 98.4079 42.7471 98.7412C46.8376 99.1373 55.1363 99.1047 59.2593 98.7513C61.6254 98.5483 62.8836 97.4379 63.2846 95.0844C64.3047 83.9234 65.573 57.5184 65.583 57.4081C65.4627 55.2702 63.9739 53.4781 61.7532 53.4004Z" fill="#1F397A"/>
<path d="M76.6999 43.7771L28.1884 43.6969C27.2059 40.2681 27.9678 36.5411 29.993 33.6462L30.166 33.4908C34.2464 35.8644 38.8356 31.3629 36.4219 27.2098C34.1812 23.3549 28.0831 24.9966 27.9979 29.4254C27.9854 30.1072 28.3889 31.1223 28.3338 31.4631C28.2912 31.7313 26.6144 34.0723 26.2885 34.8342C25.0805 37.654 24.8223 40.7694 25.3687 43.7621C23.6042 44.1054 21.9249 45.7196 22.0026 47.6169C22.0402 48.5543 23.0879 52.6147 23.4037 53.735C23.9676 55.7377 25.4339 56.4069 27.1959 56.645C29.4065 56.9432 31.9856 56.6675 34.0258 56.645C34.665 53.4343 36.7202 50.9028 40.1038 50.9028C47.786 50.9028 57.3329 50.8853 62.0299 50.9279C62.5387 50.9329 63.05 50.988 63.5387 51.1334C66.0351 51.8753 67.6768 54.0584 68.148 56.645C69.9626 56.6224 72.2961 56.645 74.4466 56.645C76.1359 56.645 77.6197 56.1362 78.3967 54.6724C78.6498 54.1962 80.1286 48.2059 80.1562 47.6019C80.2439 45.7446 78.507 43.9701 76.6974 43.7821L76.6999 43.7771Z" fill="#1F397A"/>
<path d="M67.4129 41.3385C66.7588 37.3006 63.1245 33.7917 59.1644 32.9846C56.099 32.358 44.7174 32.3731 41.8501 33.318C38.4013 34.4534 35.3485 37.7042 34.7695 41.341H67.4154L67.4129 41.3385Z" fill="#1F397A"/>
<path d="M52.853 20.9033C52.3818 21.377 51.7552 21.6377 51.0885 21.6377C50.4218 21.6377 49.7676 21.362 49.3014 20.8808C48.2237 19.7679 45.805 17.9007 41.707 17.8906V21.6678C41.7371 26.5753 45.0731 31.4804 51.5647 31.2122C57.5375 30.9665 60.4725 26.3172 60.4599 21.6678V18.1137C55.6176 18.1212 53.9533 19.793 52.8505 20.9033H52.853Z" fill="#1F397A"/>
<path d="M60.513 13.6618L64.0145 12.3635C64.7188 12.1028 64.7213 11.1053 64.0195 10.8421L51.3371 6.0624C51.2443 6.02731 51.1466 6.00977 51.0514 6.00977C50.9561 6.00977 50.8559 6.02731 50.7631 6.0624L38.1459 10.8396C37.4441 11.1053 37.4466 12.1003 38.1509 12.361L41.6573 13.6618L41.6774 15.6344C46.5649 15.6344 49.5625 17.9052 50.9235 19.3113C50.9686 19.3589 51.0288 19.3814 51.0889 19.3814C51.1491 19.3814 51.2093 19.3589 51.2544 19.3113C52.7106 17.8475 54.9112 15.8574 60.4955 15.8574L60.513 13.6618Z" fill="#1F397A"/>
</g>
<defs>
<clipPath id="clip0_92_617">
<rect x="11" width="64" height="84" rx="20" fill="white"/>
</clipPath>
</defs>
</svg>
