<?xml version="1.0" encoding="UTF-8"?>
<svg id="Icons" xmlns="http://www.w3.org/2000/svg" version="1.1" viewBox="0 0 800 800">
  <!-- Generator: Adobe Illustrator 29.1.0, SVG Export Plug-In . SVG Version: 2.1.0 Build 142)  -->
  <defs>
    <style>
      .st0 {
        fill: #fff;
        fill-rule: evenodd;
      }
    </style>
  </defs>
  <path class="st0" d="M640.6,157.4c-64.1-64.2-149.4-99.5-240.3-99.6-187.2,0-339.6,152.3-339.6,339.5,0,59.8,15.6,118.3,45.3,169.7l-48.2,175.9,180-47.2c49.6,27,105.5,41.3,162.3,41.3h.1c187.2,0,339.6-152.3,339.6-339.5,0-90.7-35.3-176-99.4-240.2M400.4,679.8h-.1c-50.7,0-100.3-13.6-143.7-39.3l-10.3-6.1-106.8,28,28.5-104.1-6.7-10.7c-28.3-44.9-43.2-96.9-43.2-150.2,0-155.6,126.7-282.2,282.4-282.2,75.4,0,146.3,29.4,199.6,82.8,53.3,53.3,82.6,124.2,82.6,199.7,0,155.6-126.7,282.2-282.3,282.2M555.2,468.4c-8.5-4.2-50.2-24.8-58-27.6-7.8-2.8-13.4-4.2-19.1,4.2-5.7,8.5-21.9,27.6-26.9,33.3-4.9,5.7-9.9,6.4-18.4,2.1-8.5-4.2-35.8-13.2-68.2-42.1-25.2-22.5-42.3-50.3-47.2-58.8-5-8.5-.5-13.1,3.7-17.3,3.8-3.8,8.5-9.9,12.7-14.9,4.2-5,5.7-8.5,8.5-14.2,2.8-5.7,1.4-10.6-.7-14.9s-19.1-46-26.2-63c-6.9-16.5-13.9-14.3-19.1-14.6-4.9-.2-10.6-.3-16.3-.3s-14.9,2.1-22.6,10.6c-7.8,8.5-29.7,29-29.7,70.8s30.4,82.1,34.7,87.8c4.2,5.7,59.8,91.4,145,128.1,20.2,8.7,36.1,14,48.4,17.9,20.3,6.5,38.8,5.5,53.5,3.4,16.3-2.4,50.2-20.5,57.3-40.3,7.1-19.8,7.1-36.8,5-40.3-2.1-3.5-7.8-5.7-16.3-9.9"/>
</svg>