<svg width="76" height="75" viewBox="0 0 76 75" fill="none" xmlns="http://www.w3.org/2000/svg">
<rect x="0.5" width="75" height="75" rx="20" fill="#EFF8D4"/>
<path d="M21.2059 51H15.3269L22.5802 41.1508L16.1667 31.7215H21.9312L26.1305 38.364H26.3213L30.4824 31.7215H36.2469L29.8335 41.1508L37.0868 51H31.2459L26.2832 44.0903H26.0923L21.2059 51ZM61.34 31.607C61.34 42.2579 45.5736 40.2727 44.581 46.0372H61.34V51H38.4348V48.5568C38.4348 34.9282 55.4228 38.6694 55.4228 31.7978C55.4228 30.0418 54.0867 28.9729 50.5746 28.9729C47.1006 28.9729 44.7719 30.5381 44.7719 32.8286H39.0456C39.0456 27.255 43.703 23.8192 50.5746 23.8192C57.5988 23.8192 61.34 26.9878 61.34 31.607Z" fill="#0E5A67"/>
</svg>
