<?xml version="1.0" encoding="UTF-8"?>
<svg id="SvgjsSvg1015" xmlns="http://www.w3.org/2000/svg" version="1.1" xmlns:svgjs="http://svgjs.dev/svgjs" xmlns:xlink="http://www.w3.org/1999/xlink" viewBox="0 0 512 512">
  <!-- Generator: Adobe Illustrator 29.1.0, SVG Export Plug-In . SVG Version: 2.1.0 Build 142)  -->
  <defs>
    <style>
      .st0 {
        fill: url(#radial-gradient);
      }

      .st1 {
        fill: url(#radial-gradient1);
      }

      .st2 {
        fill: url(#radial-gradient2);
      }

      .st3 {
        fill: url(#radial-gradient4);
      }

      .st4 {
        fill: url(#radial-gradient3);
      }
    </style>
    <radialGradient id="radial-gradient" cx="-32.8" cy="-423.5" fx="-32.8" fy="-423.5" r="283.6" gradientTransform="translate(110 -24.1) scale(1 -1)" gradientUnits="userSpaceOnUse">
      <stop offset="0" stop-color="#ebff00"/>
      <stop offset="1" stop-color="#008900"/>
    </radialGradient>
    <radialGradient id="radial-gradient1" cx="-195.2" cy="480.6" fx="-195.2" fy="480.6" r="373.1" gradientTransform="translate(0 -303.9) scale(1 -1)" xlink:href="#radial-gradient"/>
    <radialGradient id="radial-gradient2" cx="257.8" cy="-275.6" fx="257.8" fy="-275.6" r="358.5" gradientTransform="translate(0 -303.9) scale(1 -1)" xlink:href="#radial-gradient"/>
    <radialGradient id="radial-gradient3" cx="353.5" cy="-312.4" fx="353.5" fy="-312.4" r="393.7" gradientTransform="translate(0 -303.9) scale(1 -1)" xlink:href="#radial-gradient"/>
    <radialGradient id="radial-gradient4" cx="507.9" cy="-561.4" fx="507.9" fy="-561.4" r="359.5" gradientTransform="translate(0 -303.9) scale(1 -1)" xlink:href="#radial-gradient"/>
  </defs>
  <g>
    <path class="st0" d="M124.4,381.1v78.2c38,0,101.5,9.3,130.8,52.8v-91.5c-38-27.1-84-38.6-130.8-39.4h0Z"/>
    <path class="st1" d="M255.2,420.4v91.5c35.6-41.1,81.9-52.8,132.5-52.8v-78.2c-46.9.8-94.6,12.3-132.4,39.4h-.1Z"/>
  </g>
  <g>
    <path class="st2" d="M256.1,0l-94.6,94.6c-44.8,44.8-48.7,115-11.9,164.3-3.2-26.4,5.5-52.9,23.8-72.3l3-3.2L307.9,51.9,256,0h.1Z"/>
    <path class="st4" d="M351.2,95.1l-29.6-29.6-131.4,131.4c-28.8,28.8-28.8,75.5,0,104.3l25.5,25.5c-4-28,5.3-56.2,25.3-76.2l1.3-1.3,128.4-128.4c-5.3-9.2-11.8-17.7-19.5-25.6h0Z"/>
    <path class="st3" d="M256.1,262.7c-28.8,28.8-28.8,75.5,0,104.3l94.6-94.6c36-36,45.6-88.4,28.8-133.1l-123.5,123.5h.1Z"/>
  </g>
</svg>